<svg width="158" height="91" viewBox="0 0 158 91" fill="none" xmlns="http://www.w3.org/2000/svg">
<path d="M111.399 13.2C111.399 10.9 109.499 9 107.199 9H93.2988L99.6987 13.2H111.399Z" fill="white"/>
<path d="M58.1982 9H36.8984L43.3984 13.2H64.5981L58.1982 9Z" fill="white"/>
<path d="M67.0981 17.3999H57.3984L63.7983 21.6001H67.0981C72.0981 21.6001 76.1982 25.7 76.1982 30.7V59.3999H80.3984V30.7C80.3984 23.3 74.4981 17.3999 67.0981 17.3999Z" fill="white"/>
<path d="M121.899 5.5C118.699 2.4 114.399 0.699951 109.999 0.699951H31.6992L38.0991 4.8999H110.099C116.999 4.8999 122.599 10.4999 122.599 17.3999H105.999C98.699 17.3999 92.7993 23.3001 92.7993 30.6001V59.3H96.999V30.6001C96.999 25.6001 100.999 21.5 106.099 21.5H114.799C115.999 21.5 117.199 21.5001 118.299 21.6001C122.499 22.0001 125.899 23.8 126.799 26.3V21.5V17.3C126.799 12.9 125.099 8.7 121.899 5.5Z" fill="white"/>
<path d="M18.8999 75.1001H11.8999V90.3H7.59961V75.1001H0.599609V71.8H18.8999V75.1001Z" fill="white"/>
<path d="M41.8008 81.1001C41.8008 88.2001 36.1008 90.7 30.8008 90.7C25.5008 90.7 19.8008 88.1001 19.8008 81.1001C19.8008 74.0001 25.5008 71.5 30.8008 71.5C36.1008 71.5 41.8008 74.1001 41.8008 81.1001ZM37.4009 81.1001C37.4009 77.5001 35.3007 74.7 30.7007 74.7C26.1007 74.7 24.0005 77.5001 24.0005 81.1001C24.0005 84.7001 26.1007 87.5 30.7007 87.5C35.3007 87.5 37.4009 84.7001 37.4009 81.1001Z" fill="white"/>
<path d="M62.2002 90.3999L51.5 83.7L46.2002 90.3999H41L49 80.8L41.6001 72L51.7002 77.8999L56.3003 72H61.5L54.1001 80.8L62.2002 90.3999Z" fill="white"/>
<path d="M83.8003 71.8999V90.3999H79.5V82.8H68.2002V90.3999H63.9004V71.8999H68.2002V79.5H79.5V71.8999H83.8003Z" fill="white"/>
<path d="M99.499 71.8999H94.1992L85.6992 90.3999H90.1992L96.7993 75.1001L103.499 90.3999H107.999L99.499 71.8999Z" fill="white"/>
<path d="M136.5 71.8999L130 90.3999H125L121.2 77.8L117.4 90.3999H112.4L105.9 71.8999H110.4L115 85.8999L119.2 71.8999H123.2L127.4 85.8999L132 71.8999H136.5Z" fill="white"/>
<path d="M146.6 81.8L138.4 89.3V71.8999H142.7V80.6001L152.1 71.8999H157.6L149.7 79.1001L158 90.3999H153L146.6 81.8Z" fill="white"/>
</svg>
