<svg width="147" height="91" viewBox="0 0 147 91" fill="none" xmlns="http://www.w3.org/2000/svg">
<path d="M122.3 19.8999C122.3 16.3999 119.4 13.5 115.9 13.5H94.5996L104.5 19.8999H122.3Z" fill="white"/>
<path d="M40.5996 13.5H8.09961L17.8999 19.8999H50.4995L40.5996 13.5Z" fill="white"/>
<path d="M54.4004 26.3H39.4004L49.3003 32.7H54.4004C62.1004 32.7 68.3003 38.9001 68.3003 46.6001V90.7H74.7002V46.6001C74.7002 35.4001 65.6004 26.3 54.4004 26.3Z" fill="white"/>
<path d="M138.4 8.1001C133.6 3.4001 127 0.800049 120.2 0.800049H0L9.90039 7.19995H120.5C131.1 7.19995 139.7 15.7999 139.7 26.3999H114.3C103.1 26.3999 94 35.5 94 46.7V90.8H100.4V46.7C100.4 39 106.6 32.8 114.3 32.8H127.7C129.5 32.8 131.3 32.9 133.1 33C139.5 33.5 144.7 36.4 146.1 40.2V32.8V26.3999C146.1 19.3999 143.3 12.9001 138.4 8.1001Z" fill="white"/>
</svg>
