<svg width="86" height="53" viewBox="0 0 86 53" fill="none" xmlns="http://www.w3.org/2000/svg">
<path d="M13.3992 2.30029H0.199219L13.3992 4.30028V2.30029Z" fill="white"/>
<path d="M20.5 2.30029V4.30028L33.7 2.30029H20.5Z" fill="white"/>
<path d="M65.3987 2.30029H52.2988L65.3987 4.30028V2.30029Z" fill="white"/>
<path d="M72.5 2.30029V4.30028L85.7 2.30029H72.5Z" fill="white"/>
<path d="M73.7986 8.30008C72.8986 7.90008 71.4985 7.80008 71.4985 7.80008V0.100098H66.3984V7.50009C66.3984 7.50009 57.2984 6.2001 42.8984 6.2001C28.4984 6.2001 19.3984 7.50009 19.3984 7.50009V0.100098H14.2986V7.80008C14.2986 7.80008 12.8985 7.90008 11.9985 8.30008C11.0985 8.70008 10.3984 9.50009 10.3984 10.5001C10.3984 11.5001 10.3984 12.3001 10.3984 12.3001C10.3984 12.3001 20.9985 12.3001 23.1985 12.3001C25.4985 12.3001 29.5986 14.8001 29.5986 14.8001C29.5986 14.8001 27.4985 19.3001 26.1985 22.2001C24.8985 25.1001 24.8984 27.3001 24.8984 27.3001V34.2001C24.8984 34.2001 24.7984 36.1001 26.3984 36.1001C27.9984 36.1001 27.8984 34.4001 27.8984 34.4001C27.8984 34.4001 27.8984 33.7001 27.8984 30.1001C27.8984 26.5001 29.4985 23.8001 29.4985 23.8001L33.8984 17.2001C33.8984 17.2001 38.7985 17.2001 41.4985 17.2001V20.6001H38.7986C38.3986 20.6001 38.0986 20.9001 38.0986 21.3001V24.9001C38.0986 25.3001 38.3986 25.6001 38.7986 25.6001H47.5986C47.9986 25.6001 48.2986 25.3001 48.2986 24.9001V21.3001C48.2986 20.9001 47.9986 20.6001 47.5986 20.6001H44.8984V17.2001C47.5984 17.2001 52.4985 17.2001 52.4985 17.2001L56.8984 23.8001C56.8984 23.8001 58.4985 26.4001 58.4985 30.1001C58.4985 33.8001 58.4985 34.4001 58.4985 34.4001C58.4985 34.4001 58.3985 36.1001 59.9985 36.1001C61.5985 36.1001 61.4985 34.2001 61.4985 34.2001V27.3001C61.4985 27.3001 61.4985 25.2001 60.1985 22.2001C58.8985 19.2001 56.7986 14.8001 56.7986 14.8001C56.7986 14.8001 60.8985 12.3001 63.1985 12.3001C65.4985 12.3001 75.9985 12.3001 75.9985 12.3001C75.9985 12.3001 75.9985 11.6001 75.9985 10.5001C75.3985 9.50009 74.6986 8.70008 73.7986 8.30008Z" fill="white"/>
<g opacity="0.17">
<mask id="mask0_1_1161" style="mask-type:luminance" maskUnits="userSpaceOnUse" x="21" y="23" width="44" height="30">
<path d="M64.5989 23.7002H21.2988V52.7002H64.5989V23.7002Z" fill="white"/>
</mask>
<g mask="url(#mask0_1_1161)">
<path d="M28.1992 51.7002C28.1992 51.7002 30.8993 52.7002 42.9993 52.7002C55.0993 52.7002 57.7993 51.7002 57.7993 51.7002L48.0994 24.2002H37.8992L28.1992 51.7002Z" fill="white"/>
</g>
</g>
<path d="M37.8994 40.8002C38.6174 40.8002 39.1995 40.2182 39.1995 39.5002C39.1995 38.7822 38.6174 38.2002 37.8994 38.2002C37.1814 38.2002 36.5996 38.7822 36.5996 39.5002C36.5996 40.2182 37.1814 40.8002 37.8994 40.8002Z" fill="white"/>
<path d="M42.7988 34.5C44.1795 34.5 45.2988 33.3807 45.2988 32C45.2988 30.6193 44.1795 29.5 42.7988 29.5C41.4181 29.5 40.2988 30.6193 40.2988 32C40.2988 33.3807 41.4181 34.5 42.7988 34.5Z" fill="white"/>
<path d="M48.3992 49.9C50.1665 49.9 51.5994 48.4673 51.5994 46.7C51.5994 44.9327 50.1665 43.5 48.3992 43.5C46.6319 43.5 45.1992 44.9327 45.1992 46.7C45.1992 48.4673 46.6319 49.9 48.3992 49.9Z" fill="white"/>
<path d="M45.7993 41.3001C44.2993 41.3001 43.1992 40.1001 43.1992 38.7001C43.1992 37.2001 44.3993 36.1001 45.7993 36.1001C47.1993 36.1001 48.3992 37.3001 48.3992 38.7001C48.3992 40.1001 47.1993 41.3001 45.7993 41.3001ZM45.7993 37.1001C44.8993 37.1001 44.1992 37.8001 44.1992 38.7001C44.1992 39.6001 44.8993 40.3001 45.7993 40.3001C46.6993 40.3001 47.3992 39.6001 47.3992 38.7001C47.3992 37.8001 46.5993 37.1001 45.7993 37.1001Z" fill="white"/>
<path d="M35.6992 48.7002C34.5992 48.7002 33.6992 47.8002 33.6992 46.7002C33.6992 45.6002 34.5992 44.7002 35.6992 44.7002C36.7992 44.7002 37.6992 45.6002 37.6992 46.7002C37.6992 47.8002 36.7992 48.7002 35.6992 48.7002ZM35.6992 45.7002C35.1992 45.7002 34.7993 46.1002 34.7993 46.6002C34.7993 47.1002 35.1992 47.5002 35.6992 47.5002C36.1992 47.5002 36.5994 47.1002 36.5994 46.6002C36.5994 46.2002 36.1992 45.7002 35.6992 45.7002Z" fill="white"/>
</svg>
