<svg width="915" height="164" viewBox="0 0 915 164" fill="none" xmlns="http://www.w3.org/2000/svg">
<path d="M6.30114 157.199L1.32955 139.017H3.56676L7.36648 153.825H7.54403L11.4148 139.017H13.9006L17.7713 153.825H17.9489L21.7486 139.017H23.9858L19.0142 157.199H16.7415L12.7287 142.71H12.5866L8.57386 157.199H6.30114ZM30.7152 157.483C29.4841 157.483 28.404 157.19 27.4748 156.604C26.5515 156.018 25.8294 155.198 25.3086 154.145C24.7937 153.091 24.5362 151.86 24.5362 150.452C24.5362 149.031 24.7937 147.791 25.3086 146.732C25.8294 145.672 26.5515 144.85 27.4748 144.264C28.404 143.678 29.4841 143.385 30.7152 143.385C31.9463 143.385 33.0234 143.678 33.9467 144.264C34.8759 144.85 35.598 145.672 36.1129 146.732C36.6338 147.791 36.8942 149.031 36.8942 150.452C36.8942 151.86 36.6338 153.091 36.1129 154.145C35.598 155.198 34.8759 156.018 33.9467 156.604C33.0234 157.19 31.9463 157.483 30.7152 157.483ZM30.7152 155.601C31.6503 155.601 32.4197 155.361 33.0234 154.882C33.6271 154.402 34.074 153.772 34.364 152.991C34.654 152.209 34.799 151.363 34.799 150.452C34.799 149.54 34.654 148.691 34.364 147.904C34.074 147.116 33.6271 146.48 33.0234 145.995C32.4197 145.51 31.6503 145.267 30.7152 145.267C29.7801 145.267 29.0107 145.51 28.407 145.995C27.8033 146.48 27.3564 147.116 27.0664 147.904C26.7764 148.691 26.6314 149.54 26.6314 150.452C26.6314 151.363 26.7764 152.209 27.0664 152.991C27.3564 153.772 27.8033 154.402 28.407 154.882C29.0107 155.361 29.7801 155.601 30.7152 155.601ZM45.2416 157.483C44.1052 157.483 43.102 157.196 42.232 156.622C41.3619 156.042 40.6813 155.225 40.1901 154.171C39.6988 153.112 39.4532 151.86 39.4532 150.416C39.4532 148.984 39.6988 147.741 40.1901 146.687C40.6813 145.634 41.3649 144.82 42.2409 144.246C43.1168 143.672 44.1289 143.385 45.2771 143.385C46.1649 143.385 46.8662 143.533 47.3811 143.829C47.902 144.119 48.2985 144.45 48.5708 144.823C48.8489 145.19 49.065 145.492 49.2188 145.729H49.3964V139.017H51.4916V157.199H49.4674V155.104H49.2188C49.065 155.352 48.846 155.666 48.5619 156.045C48.2778 156.417 47.8724 156.752 47.3456 157.048C46.8189 157.338 46.1175 157.483 45.2416 157.483ZM45.5257 155.601C46.3661 155.601 47.0763 155.382 47.6563 154.944C48.2364 154.5 48.6773 153.887 48.9791 153.106C49.281 152.319 49.4319 151.41 49.4319 150.381C49.4319 149.363 49.2839 148.472 48.988 147.708C48.6921 146.939 48.2541 146.341 47.6741 145.915C47.0941 145.483 46.3779 145.267 45.5257 145.267C44.6379 145.267 43.8981 145.495 43.3062 145.951C42.7203 146.4 42.2793 147.013 41.9834 147.788C41.6934 148.558 41.5484 149.422 41.5484 150.381C41.5484 151.351 41.6963 152.233 41.9923 153.026C42.2941 153.813 42.738 154.441 43.324 154.908C43.9158 155.37 44.6497 155.601 45.5257 155.601ZM59.6325 157.518C58.7684 157.518 57.9842 157.356 57.2799 157.03C56.5756 156.699 56.0163 156.222 55.602 155.601C55.1877 154.973 54.9806 154.216 54.9806 153.328C54.9806 152.547 55.1344 151.913 55.4422 151.428C55.75 150.937 56.1613 150.552 56.6762 150.274C57.1911 149.996 57.7593 149.789 58.3808 149.653C59.0081 149.511 59.6385 149.398 60.2718 149.315C61.1003 149.209 61.7721 149.129 62.287 149.076C62.8079 149.016 63.1866 148.919 63.4234 148.783C63.666 148.646 63.7874 148.41 63.7874 148.072V148.001C63.7874 147.125 63.5477 146.445 63.0683 145.959C62.5948 145.474 61.8757 145.231 60.911 145.231C59.9107 145.231 59.1265 145.45 58.5583 145.888C57.9901 146.326 57.5906 146.794 57.3598 147.291L55.3712 146.581C55.7263 145.752 56.1998 145.107 56.7916 144.645C57.3894 144.178 58.0405 143.852 58.7448 143.669C59.455 143.48 60.1534 143.385 60.8399 143.385C61.2779 143.385 61.781 143.438 62.3492 143.545C62.9233 143.645 63.4767 143.855 64.0093 144.175C64.5479 144.495 64.9948 144.977 65.3499 145.622C65.705 146.267 65.8825 147.131 65.8825 148.214V157.199H63.7874V155.352H63.6808C63.5388 155.648 63.3021 155.965 62.9706 156.302C62.6392 156.639 62.1982 156.926 61.6478 157.163C61.0974 157.4 60.4256 157.518 59.6325 157.518ZM59.9521 155.636C60.7807 155.636 61.4791 155.473 62.0473 155.148C62.6214 154.822 63.0535 154.402 63.3435 153.887C63.6394 153.372 63.7874 152.831 63.7874 152.263V150.345C63.6986 150.452 63.5033 150.549 63.2014 150.638C62.9055 150.721 62.5622 150.795 62.1716 150.86C61.7869 150.919 61.4111 150.972 61.0441 151.02C60.6831 151.061 60.3901 151.097 60.1652 151.126C59.6207 151.197 59.1117 151.313 58.6382 151.473C58.1707 151.626 57.7919 151.86 57.5019 152.174C57.2178 152.482 57.0757 152.902 57.0757 153.435C57.0757 154.163 57.345 154.713 57.8836 155.086C58.4281 155.453 59.1176 155.636 59.9521 155.636ZM77.4837 148.108C77.4837 145.871 77.7737 143.814 78.3537 141.938C78.9396 140.056 79.7741 138.324 80.8572 136.744H82.7038C82.2777 137.33 81.8782 138.052 81.5053 138.91C81.1384 139.763 80.8158 140.701 80.5376 141.725C80.2595 142.743 80.0405 143.796 79.8807 144.885C79.7268 145.974 79.6499 147.048 79.6499 148.108C79.6499 149.516 79.786 150.946 80.0582 152.396C80.3305 153.846 80.6974 155.192 81.1591 156.435C81.6207 157.678 82.1357 158.69 82.7038 159.471H80.8572C79.7741 157.891 78.9396 156.163 78.3537 154.287C77.7737 152.405 77.4837 150.345 77.4837 148.108ZM86.0796 157.199V139.017H88.2813V147.114H97.9759V139.017H100.178V157.199H97.9759V149.067H88.2813V157.199H86.0796ZM104.266 157.199V155.601L110.267 149.031C110.972 148.262 111.552 147.593 112.007 147.025C112.463 146.451 112.8 145.912 113.019 145.409C113.244 144.9 113.357 144.367 113.357 143.811C113.357 143.172 113.203 142.618 112.895 142.151C112.593 141.683 112.179 141.322 111.652 141.068C111.126 140.813 110.534 140.686 109.877 140.686C109.178 140.686 108.569 140.831 108.048 141.121C107.533 141.405 107.133 141.805 106.849 142.319C106.571 142.834 106.432 143.438 106.432 144.131H104.337C104.337 143.065 104.583 142.13 105.074 141.325C105.565 140.52 106.234 139.893 107.08 139.443C107.932 138.993 108.888 138.768 109.948 138.768C111.013 138.768 111.957 138.993 112.78 139.443C113.602 139.893 114.248 140.5 114.715 141.263C115.183 142.027 115.416 142.876 115.416 143.811C115.416 144.48 115.295 145.134 115.052 145.773C114.816 146.406 114.401 147.114 113.81 147.895C113.224 148.67 112.41 149.617 111.368 150.736L107.284 155.104V155.246H115.736V157.199H104.266ZM135.063 148.108C135.063 150.025 134.717 151.683 134.024 153.079C133.332 154.476 132.382 155.553 131.175 156.311C129.967 157.069 128.588 157.447 127.038 157.447C125.487 157.447 124.108 157.069 122.9 156.311C121.693 155.553 120.743 154.476 120.051 153.079C119.358 151.683 119.012 150.025 119.012 148.108C119.012 146.19 119.358 144.533 120.051 143.136C120.743 141.739 121.693 140.662 122.9 139.905C124.108 139.147 125.487 138.768 127.038 138.768C128.588 138.768 129.967 139.147 131.175 139.905C132.382 140.662 133.332 141.739 134.024 143.136C134.717 144.533 135.063 146.19 135.063 148.108ZM132.932 148.108C132.932 146.533 132.669 145.205 132.142 144.122C131.621 143.039 130.914 142.219 130.021 141.663C129.133 141.106 128.138 140.828 127.038 140.828C125.937 140.828 124.939 141.106 124.046 141.663C123.158 142.219 122.451 143.039 121.924 144.122C121.403 145.205 121.143 146.533 121.143 148.108C121.143 149.682 121.403 151.011 121.924 152.094C122.451 153.177 123.158 153.997 124.046 154.553C124.939 155.109 125.937 155.388 127.038 155.388C128.138 155.388 129.133 155.109 130.021 154.553C130.914 153.997 131.621 153.177 132.142 152.094C132.669 151.011 132.932 149.682 132.932 148.108ZM142.956 148.108C142.956 150.345 142.663 152.405 142.077 154.287C141.497 156.163 140.665 157.891 139.582 159.471H137.735C138.161 158.886 138.558 158.163 138.925 157.305C139.298 156.453 139.623 155.518 139.902 154.5C140.18 153.476 140.396 152.419 140.55 151.33C140.709 150.236 140.789 149.161 140.789 148.108C140.789 146.699 140.653 145.27 140.381 143.82C140.109 142.37 139.742 141.023 139.28 139.78C138.818 138.538 138.304 137.525 137.735 136.744H139.582C140.665 138.324 141.497 140.056 142.077 141.938C142.663 143.814 142.956 145.871 142.956 148.108Z" fill="#F4F4F4"/>
<path d="M437.647 157.199L432.675 139.017H434.912L438.712 153.825H438.89L442.76 139.017H445.246L449.117 153.825H449.295L453.094 139.017H455.331L450.36 157.199H448.087L444.074 142.71H443.932L439.92 157.199H437.647ZM462.061 157.483C460.83 157.483 459.75 157.19 458.82 156.604C457.897 156.018 457.175 155.198 456.654 154.145C456.139 153.091 455.882 151.86 455.882 150.452C455.882 149.031 456.139 147.791 456.654 146.732C457.175 145.672 457.897 144.85 458.82 144.264C459.75 143.678 460.83 143.385 462.061 143.385C463.292 143.385 464.369 143.678 465.292 144.264C466.222 144.85 466.944 145.672 467.459 146.732C467.979 147.791 468.24 149.031 468.24 150.452C468.24 151.86 467.979 153.091 467.459 154.145C466.944 155.198 466.222 156.018 465.292 156.604C464.369 157.19 463.292 157.483 462.061 157.483ZM462.061 155.601C462.996 155.601 463.765 155.361 464.369 154.882C464.973 154.402 465.42 153.772 465.71 152.991C466 152.209 466.145 151.363 466.145 150.452C466.145 149.54 466 148.691 465.71 147.904C465.42 147.116 464.973 146.48 464.369 145.995C463.765 145.51 462.996 145.267 462.061 145.267C461.126 145.267 460.356 145.51 459.753 145.995C459.149 146.48 458.702 147.116 458.412 147.904C458.122 148.691 457.977 149.54 457.977 150.452C457.977 151.363 458.122 152.209 458.412 152.991C458.702 153.772 459.149 154.402 459.753 154.882C460.356 155.361 461.126 155.601 462.061 155.601ZM476.587 157.483C475.451 157.483 474.448 157.196 473.578 156.622C472.708 156.042 472.027 155.225 471.536 154.171C471.045 153.112 470.799 151.86 470.799 150.416C470.799 148.984 471.045 147.741 471.536 146.687C472.027 145.634 472.711 144.82 473.587 144.246C474.463 143.672 475.475 143.385 476.623 143.385C477.511 143.385 478.212 143.533 478.727 143.829C479.248 144.119 479.644 144.45 479.916 144.823C480.195 145.19 480.411 145.492 480.565 145.729H480.742V139.017H482.837V157.199H480.813V155.104H480.565C480.411 155.352 480.192 155.666 479.908 156.045C479.623 156.417 479.218 156.752 478.691 157.048C478.165 157.338 477.463 157.483 476.587 157.483ZM476.871 155.601C477.712 155.601 478.422 155.382 479.002 154.944C479.582 154.5 480.023 153.887 480.325 153.106C480.627 152.319 480.778 151.41 480.778 150.381C480.778 149.363 480.63 148.472 480.334 147.708C480.038 146.939 479.6 146.341 479.02 145.915C478.44 145.483 477.724 145.267 476.871 145.267C475.984 145.267 475.244 145.495 474.652 145.951C474.066 146.4 473.625 147.013 473.329 147.788C473.039 148.558 472.894 149.422 472.894 150.381C472.894 151.351 473.042 152.233 473.338 153.026C473.64 153.813 474.084 154.441 474.67 154.908C475.262 155.37 475.995 155.601 476.871 155.601ZM492.505 157.483C491.274 157.483 490.194 157.19 489.265 156.604C488.342 156.018 487.619 155.198 487.099 154.145C486.584 153.091 486.326 151.86 486.326 150.452C486.326 149.031 486.584 147.791 487.099 146.732C487.619 145.672 488.342 144.85 489.265 144.264C490.194 143.678 491.274 143.385 492.505 143.385C493.736 143.385 494.813 143.678 495.737 144.264C496.666 144.85 497.388 145.672 497.903 146.732C498.424 147.791 498.684 149.031 498.684 150.452C498.684 151.86 498.424 153.091 497.903 154.145C497.388 155.198 496.666 156.018 495.737 156.604C494.813 157.19 493.736 157.483 492.505 157.483ZM492.505 155.601C493.44 155.601 494.21 155.361 494.813 154.882C495.417 154.402 495.864 153.772 496.154 152.991C496.444 152.209 496.589 151.363 496.589 150.452C496.589 149.54 496.444 148.691 496.154 147.904C495.864 147.116 495.417 146.48 494.813 145.995C494.21 145.51 493.44 145.267 492.505 145.267C491.57 145.267 490.801 145.51 490.197 145.995C489.593 146.48 489.146 147.116 488.856 147.904C488.566 148.691 488.421 149.54 488.421 150.452C488.421 151.363 488.566 152.209 488.856 152.991C489.146 153.772 489.593 154.402 490.197 154.882C490.801 155.361 491.57 155.601 492.505 155.601ZM491.546 141.716L493.713 137.596H496.163L493.393 141.716H491.546ZM501.882 157.199V143.562H503.907V145.622H504.049C504.297 144.947 504.747 144.4 505.398 143.98C506.049 143.559 506.783 143.349 507.6 143.349C507.754 143.349 507.946 143.352 508.177 143.358C508.408 143.364 508.582 143.373 508.701 143.385V145.515C508.63 145.498 508.467 145.471 508.212 145.436C507.964 145.394 507.7 145.373 507.422 145.373C506.759 145.373 506.167 145.513 505.647 145.791C505.132 146.063 504.723 146.442 504.422 146.927C504.126 147.406 503.978 147.954 503.978 148.569V157.199H501.882ZM518.961 148.108C518.961 145.871 519.251 143.814 519.831 141.938C520.417 140.056 521.252 138.324 522.335 136.744H524.181C523.755 137.33 523.356 138.052 522.983 138.91C522.616 139.763 522.293 140.701 522.015 141.725C521.737 142.743 521.518 143.796 521.358 144.885C521.204 145.974 521.127 147.048 521.127 148.108C521.127 149.516 521.264 150.946 521.536 152.396C521.808 153.846 522.175 155.192 522.637 156.435C523.098 157.678 523.613 158.69 524.181 159.471H522.335C521.252 157.891 520.417 156.163 519.831 154.287C519.251 152.405 518.961 150.345 518.961 148.108ZM527.557 157.199V139.017H529.759V147.114H539.453V139.017H541.655V157.199H539.453V149.067H529.759V157.199H527.557ZM545.743 157.199V155.601L551.745 149.031C552.449 148.262 553.029 147.593 553.485 147.025C553.941 146.451 554.278 145.912 554.497 145.409C554.722 144.9 554.834 144.367 554.834 143.811C554.834 143.172 554.68 142.618 554.373 142.151C554.071 141.683 553.657 141.322 553.13 141.068C552.603 140.813 552.011 140.686 551.354 140.686C550.656 140.686 550.046 140.831 549.525 141.121C549.01 141.405 548.611 141.805 548.327 142.319C548.049 142.834 547.91 143.438 547.91 144.131H545.814C545.814 143.065 546.06 142.13 546.551 141.325C547.043 140.52 547.711 139.893 548.558 139.443C549.41 138.993 550.366 138.768 551.425 138.768C552.491 138.768 553.435 138.993 554.257 139.443C555.08 139.893 555.725 140.5 556.193 141.263C556.66 142.027 556.894 142.876 556.894 143.811C556.894 144.48 556.773 145.134 556.53 145.773C556.293 146.406 555.879 147.114 555.287 147.895C554.701 148.67 553.887 149.617 552.846 150.736L548.762 155.104V155.246H557.214V157.199H545.743ZM565.39 148.108C565.39 150.345 565.097 152.405 564.511 154.287C563.931 156.163 563.1 157.891 562.017 159.471H560.17C560.596 158.886 560.993 158.163 561.36 157.305C561.732 156.453 562.058 155.518 562.336 154.5C562.614 153.476 562.83 152.419 562.984 151.33C563.144 150.236 563.224 149.161 563.224 148.108C563.224 146.699 563.088 145.27 562.816 143.82C562.543 142.37 562.176 141.023 561.715 139.78C561.253 138.538 560.738 137.525 560.17 136.744H562.017C563.1 138.324 563.931 140.056 564.511 141.938C565.097 143.814 565.39 145.871 565.39 148.108Z" fill="#F4F4F4"/>
<path d="M235.948 24.1792V5.99738H246.85V7.95051H238.15V14.094H246.033V16.0471H238.15V24.1792H235.948ZM255.053 24.4633C253.739 24.4633 252.606 24.1733 251.653 23.5933C250.706 23.0073 249.975 22.1906 249.46 21.143C248.951 20.0895 248.696 18.8643 248.696 17.4676C248.696 16.0708 248.951 14.8397 249.46 13.7744C249.975 12.7031 250.691 11.8686 251.608 11.2708C252.532 10.6671 253.609 10.3653 254.84 10.3653C255.55 10.3653 256.251 10.4836 256.944 10.7204C257.636 10.9571 258.267 11.3418 258.835 11.8745C259.403 12.4013 259.856 13.0997 260.193 13.9697C260.531 14.8397 260.699 15.911 260.699 17.1835V18.0712H250.188V16.2602H258.569C258.569 15.4908 258.415 14.8042 258.107 14.2005C257.805 13.5968 257.373 13.1204 256.811 12.7712C256.254 12.422 255.597 12.2474 254.84 12.2474C254.005 12.2474 253.283 12.4545 252.674 12.8688C252.07 13.2772 251.605 13.8099 251.28 14.4668C250.954 15.1238 250.792 15.8281 250.792 16.5798V17.7872C250.792 18.817 250.969 19.69 251.324 20.4061C251.685 21.1163 252.185 21.6579 252.825 22.0308C253.464 22.3977 254.207 22.5812 255.053 22.5812C255.603 22.5812 256.1 22.5042 256.544 22.3504C256.994 22.1906 257.382 21.9538 257.707 21.6401C258.033 21.3205 258.284 20.924 258.462 20.4505L260.486 21.0187C260.273 21.7052 259.915 22.3089 259.412 22.8298C258.909 23.3447 258.287 23.7471 257.548 24.0372C256.808 24.3212 255.976 24.4633 255.053 24.4633ZM269.426 24.4633C268.148 24.4633 267.047 24.1614 266.124 23.5578C265.2 22.9541 264.49 22.1225 263.993 21.0631C263.496 20.0037 263.247 18.7933 263.247 17.432C263.247 16.0471 263.502 14.8249 264.011 13.7655C264.526 12.7002 265.242 11.8686 266.159 11.2708C267.082 10.6671 268.16 10.3653 269.391 10.3653C270.349 10.3653 271.214 10.5428 271.983 10.8979C272.752 11.2531 273.383 11.7502 273.874 12.3894C274.365 13.0286 274.67 13.7744 274.788 14.6266H272.693C272.533 14.0052 272.178 13.4548 271.628 12.9754C271.083 12.49 270.349 12.2474 269.426 12.2474C268.609 12.2474 267.893 12.4604 267.278 12.8866C266.668 13.3068 266.192 13.9016 265.848 14.671C265.511 15.4345 265.342 16.3312 265.342 17.361C265.342 18.4145 265.508 19.3319 265.839 20.1131C266.177 20.8944 266.65 21.5011 267.26 21.9331C267.875 22.3652 268.598 22.5812 269.426 22.5812C269.971 22.5812 270.465 22.4865 270.909 22.2971C271.353 22.1077 271.728 21.8354 272.036 21.4803C272.344 21.1252 272.563 20.6991 272.693 20.2019H274.788C274.67 21.0069 274.377 21.7319 273.909 22.377C273.448 23.0162 272.835 23.5252 272.072 23.904C271.314 24.2769 270.432 24.4633 269.426 24.4633ZM279.946 15.9761V24.1792H277.851V5.99738H279.946V12.6735H280.124C280.444 11.9692 280.923 11.4099 281.562 10.9956C282.207 10.5754 283.065 10.3653 284.137 10.3653C285.066 10.3653 285.88 10.5517 286.578 10.9246C287.277 11.2915 287.818 11.8568 288.203 12.6203C288.593 13.3778 288.789 14.3426 288.789 15.5144V24.1792H286.694V15.6565C286.694 14.5734 286.412 13.7359 285.85 13.144C285.294 12.5463 284.521 12.2474 283.533 12.2474C282.846 12.2474 282.231 12.3924 281.686 12.6824C281.148 12.9724 280.722 13.3956 280.408 13.9519C280.1 14.5083 279.946 15.183 279.946 15.9761ZM294.717 5.99738V24.1792H292.622V5.99738H294.717ZM302.567 24.4988C301.703 24.4988 300.919 24.336 300.214 24.0105C299.51 23.6791 298.951 23.2026 298.537 22.5812C298.122 21.9538 297.915 21.1962 297.915 20.3085C297.915 19.5272 298.069 18.8939 298.377 18.4086C298.685 17.9174 299.096 17.5327 299.611 17.2545C300.126 16.9763 300.694 16.7692 301.315 16.633C301.943 16.491 302.573 16.3785 303.206 16.2957C304.035 16.1891 304.707 16.1092 305.222 16.056C305.742 15.9968 306.121 15.8991 306.358 15.763C306.601 15.6269 306.722 15.3901 306.722 15.0528V14.9818C306.722 14.1058 306.482 13.4252 306.003 12.9399C305.529 12.4545 304.81 12.2119 303.846 12.2119C302.845 12.2119 302.061 12.4309 301.493 12.8688C300.925 13.3068 300.525 13.7744 300.294 14.2715L298.306 13.5613C298.661 12.7327 299.134 12.0876 299.726 11.6259C300.324 11.1584 300.975 10.8328 301.679 10.6494C302.39 10.46 303.088 10.3653 303.775 10.3653C304.212 10.3653 304.716 10.4185 305.284 10.5251C305.858 10.6257 306.411 10.8358 306.944 11.1554C307.482 11.475 307.929 11.9574 308.284 12.6025C308.64 13.2476 308.817 14.1117 308.817 15.1948V24.1792H306.722V22.3326H306.615C306.473 22.6285 306.237 22.9452 305.905 23.2825C305.574 23.6199 305.133 23.9069 304.582 24.1437C304.032 24.3804 303.36 24.4988 302.567 24.4988ZM302.887 22.6167C303.715 22.6167 304.414 22.4539 304.982 22.1284C305.556 21.8029 305.988 21.3827 306.278 20.8678C306.574 20.3528 306.722 19.8113 306.722 19.2431V17.3255C306.633 17.432 306.438 17.5297 306.136 17.6185C305.84 17.7013 305.497 17.7753 305.106 17.8404C304.721 17.8996 304.346 17.9529 303.979 18.0002C303.618 18.0417 303.325 18.0772 303.1 18.1068C302.555 18.1778 302.046 18.2932 301.573 18.453C301.105 18.6069 300.726 18.8407 300.436 19.1543C300.152 19.4621 300.01 19.8823 300.01 20.415C300.01 21.143 300.28 21.6934 300.818 22.0663C301.363 22.4332 302.052 22.6167 302.887 22.6167ZM318.572 10.5428V12.3184H311.505V10.5428H318.572ZM313.565 7.27579H315.66V20.2729C315.66 20.8648 315.746 21.3087 315.917 21.6046C316.095 21.8946 316.32 22.0899 316.592 22.1906C316.87 22.2853 317.163 22.3326 317.471 22.3326C317.702 22.3326 317.891 22.3208 318.039 22.2971C318.187 22.2675 318.305 22.2438 318.394 22.2261L318.82 24.1082C318.678 24.1614 318.48 24.2147 318.225 24.268C317.971 24.3272 317.648 24.3568 317.258 24.3568C316.666 24.3568 316.086 24.2295 315.518 23.975C314.955 23.7205 314.488 23.3328 314.115 22.812C313.748 22.2912 313.565 21.6342 313.565 20.8411V7.27579ZM327.294 24.4633C325.98 24.4633 324.847 24.1733 323.894 23.5933C322.947 23.0073 322.216 22.1906 321.701 21.143C321.192 20.0895 320.938 18.8643 320.938 17.4676C320.938 16.0708 321.192 14.8397 321.701 13.7744C322.216 12.7031 322.932 11.8686 323.85 11.2708C324.773 10.6671 325.85 10.3653 327.081 10.3653C327.791 10.3653 328.493 10.4836 329.185 10.7204C329.878 10.9571 330.508 11.3418 331.076 11.8745C331.644 12.4013 332.097 13.0997 332.434 13.9697C332.772 14.8397 332.94 15.911 332.94 17.1835V18.0712H322.429V16.2602H330.81C330.81 15.4908 330.656 14.8042 330.348 14.2005C330.046 13.5968 329.614 13.1204 329.052 12.7712C328.496 12.422 327.839 12.2474 327.081 12.2474C326.247 12.2474 325.524 12.4545 324.915 12.8688C324.311 13.2772 323.847 13.8099 323.521 14.4668C323.196 15.1238 323.033 15.8281 323.033 16.5798V17.7872C323.033 18.817 323.21 19.69 323.565 20.4061C323.926 21.1163 324.427 21.6579 325.066 22.0308C325.705 22.3977 326.448 22.5812 327.294 22.5812C327.845 22.5812 328.342 22.5042 328.786 22.3504C329.235 22.1906 329.623 21.9538 329.949 21.6401C330.274 21.3205 330.526 20.924 330.703 20.4505L332.727 21.0187C332.514 21.7052 332.156 22.3089 331.653 22.8298C331.15 23.3447 330.529 23.7471 329.789 24.0372C329.049 24.3212 328.217 24.4633 327.294 24.4633ZM339.69 16.0471V9.49525H343.01C343.276 9.49525 343.566 9.57219 343.88 9.72607C344.194 9.87404 344.46 10.1049 344.679 10.4185C344.904 10.7263 345.017 11.1169 345.017 11.5904C345.017 12.0698 344.901 12.4782 344.67 12.8156C344.439 13.147 344.158 13.3985 343.827 13.5702C343.501 13.7418 343.194 13.8276 342.904 13.8276H340.507V12.7623H342.46C342.655 12.7623 342.865 12.6646 343.09 12.4693C343.321 12.274 343.436 11.981 343.436 11.5904C343.436 11.188 343.321 10.9157 343.09 10.7737C342.865 10.6316 342.667 10.5606 342.495 10.5606H341.128V16.0471H339.69ZM343.649 12.9576L345.283 16.0471H343.703L342.105 12.9576H343.649ZM342.176 19.9533C341.193 19.9533 340.273 19.7699 339.415 19.4029C338.556 19.036 337.802 18.527 337.151 17.8759C336.5 17.2249 335.991 16.4703 335.624 15.6121C335.257 14.7539 335.073 13.8336 335.073 12.8511C335.073 11.8686 335.257 10.9483 335.624 10.0901C335.991 9.23187 336.5 8.47726 337.151 7.82622C337.802 7.17517 338.556 6.66618 339.415 6.29923C340.273 5.93228 341.193 5.7488 342.176 5.7488C343.158 5.7488 344.078 5.93228 344.937 6.29923C345.795 6.66618 346.549 7.17517 347.2 7.82622C347.852 8.47726 348.36 9.23187 348.727 10.0901C349.094 10.9483 349.278 11.8686 349.278 12.8511C349.278 13.8336 349.094 14.7539 348.727 15.6121C348.36 16.4703 347.852 17.2249 347.2 17.8759C346.549 18.527 345.795 19.036 344.937 19.4029C344.078 19.7699 343.158 19.9533 342.176 19.9533ZM342.176 18.2488C343.17 18.2488 344.075 18.0061 344.892 17.5208C345.709 17.0355 346.36 16.3845 346.845 15.5677C347.331 14.7509 347.573 13.8454 347.573 12.8511C347.573 11.8568 347.331 10.9512 346.845 10.1345C346.36 9.31769 345.709 8.66665 344.892 8.18133C344.075 7.69601 343.17 7.45335 342.176 7.45335C341.181 7.45335 340.276 7.69601 339.459 8.18133C338.642 8.66665 337.991 9.31769 337.506 10.1345C337.021 10.9512 336.778 11.8568 336.778 12.8511C336.778 13.8454 337.021 14.7509 337.506 15.5677C337.991 16.3845 338.642 17.0355 339.459 17.5208C340.276 18.0061 341.181 18.2488 342.176 18.2488Z" fill="#F4F4F4"/>
<path d="M804.721 140.97V139.017H818.357V140.97H812.64V157.199H810.438V140.97H804.721ZM823.566 139.017V157.199H821.471V139.017H823.566ZM833.121 157.483C831.807 157.483 830.674 157.193 829.721 156.613C828.774 156.027 828.043 155.21 827.528 154.163C827.019 153.109 826.765 151.884 826.765 150.487C826.765 149.09 827.019 147.859 827.528 146.794C828.043 145.723 828.759 144.888 829.677 144.29C830.6 143.687 831.677 143.385 832.908 143.385C833.618 143.385 834.32 143.503 835.012 143.74C835.705 143.977 836.335 144.361 836.903 144.894C837.471 145.421 837.924 146.119 838.262 146.989C838.599 147.859 838.768 148.931 838.768 150.203V151.091H828.256V149.28H836.637C836.637 148.51 836.483 147.824 836.175 147.22C835.873 146.616 835.441 146.14 834.879 145.791C834.323 145.442 833.666 145.267 832.908 145.267C832.074 145.267 831.352 145.474 830.742 145.888C830.138 146.297 829.674 146.829 829.348 147.486C829.023 148.143 828.86 148.848 828.86 149.599V150.807C828.86 151.837 829.037 152.71 829.393 153.426C829.754 154.136 830.254 154.677 830.893 155.05C831.532 155.417 832.275 155.601 833.121 155.601C833.672 155.601 834.169 155.524 834.613 155.37C835.063 155.21 835.45 154.973 835.776 154.66C836.101 154.34 836.353 153.944 836.53 153.47L838.555 154.038C838.341 154.725 837.983 155.328 837.48 155.849C836.977 156.364 836.356 156.767 835.616 157.057C834.876 157.341 834.045 157.483 833.121 157.483ZM844.05 148.996V157.199H841.955V143.562H843.979V145.693H844.156C844.476 145.001 844.961 144.444 845.612 144.024C846.263 143.598 847.104 143.385 848.134 143.385C849.057 143.385 849.865 143.574 850.557 143.953C851.25 144.326 851.788 144.894 852.173 145.658C852.558 146.415 852.75 147.374 852.75 148.534V157.199H850.655V148.676C850.655 147.605 850.377 146.77 849.82 146.172C849.264 145.569 848.501 145.267 847.53 145.267C846.861 145.267 846.263 145.412 845.737 145.702C845.216 145.992 844.805 146.415 844.503 146.971C844.201 147.528 844.05 148.203 844.05 148.996ZM864.356 148.108C864.356 145.871 864.646 143.814 865.226 141.938C865.812 140.056 866.646 138.324 867.729 136.744H869.576C869.15 137.33 868.75 138.052 868.377 138.91C868.01 139.763 867.688 140.701 867.41 141.725C867.132 142.743 866.913 143.796 866.753 144.885C866.599 145.974 866.522 147.048 866.522 148.108C866.522 149.516 866.658 150.946 866.93 152.396C867.203 153.846 867.57 155.192 868.031 156.435C868.493 157.678 869.008 158.69 869.576 159.471H867.729C866.646 157.891 865.812 156.163 865.226 154.287C864.646 152.405 864.356 150.345 864.356 148.108ZM888.293 148.108C888.293 150.025 887.946 151.683 887.254 153.079C886.561 154.476 885.612 155.553 884.404 156.311C883.197 157.069 881.818 157.447 880.267 157.447C878.716 157.447 877.337 157.069 876.13 156.311C874.923 155.553 873.973 154.476 873.28 153.079C872.588 151.683 872.241 150.025 872.241 148.108C872.241 146.19 872.588 144.533 873.28 143.136C873.973 141.739 874.923 140.662 876.13 139.905C877.337 139.147 878.716 138.768 880.267 138.768C881.818 138.768 883.197 139.147 884.404 139.905C885.612 140.662 886.561 141.739 887.254 143.136C887.946 144.533 888.293 146.19 888.293 148.108ZM886.162 148.108C886.162 146.533 885.899 145.205 885.372 144.122C884.851 143.039 884.144 142.219 883.25 141.663C882.362 141.106 881.368 140.828 880.267 140.828C879.166 140.828 878.169 141.106 877.275 141.663C876.387 142.219 875.68 143.039 875.153 144.122C874.633 145.205 874.372 146.533 874.372 148.108C874.372 149.682 874.633 151.011 875.153 152.094C875.68 153.177 876.387 153.997 877.275 154.553C878.169 155.109 879.166 155.388 880.267 155.388C881.368 155.388 882.362 155.109 883.25 154.553C884.144 153.997 884.851 153.177 885.372 152.094C885.899 151.011 886.162 149.682 886.162 148.108ZM891.675 157.199V155.601L897.676 149.031C898.381 148.262 898.961 147.593 899.417 147.025C899.872 146.451 900.21 145.912 900.429 145.409C900.654 144.9 900.766 144.367 900.766 143.811C900.766 143.172 900.612 142.618 900.304 142.151C900.002 141.683 899.588 141.322 899.061 141.068C898.535 140.813 897.943 140.686 897.286 140.686C896.587 140.686 895.978 140.831 895.457 141.121C894.942 141.405 894.543 141.805 894.259 142.319C893.98 142.834 893.841 143.438 893.841 144.131H891.746C891.746 143.065 891.992 142.13 892.483 141.325C892.974 140.52 893.643 139.893 894.489 139.443C895.342 138.993 896.297 138.768 897.357 138.768C898.422 138.768 899.366 138.993 900.189 139.443C901.012 139.893 901.657 140.5 902.124 141.263C902.592 142.027 902.826 142.876 902.826 143.811C902.826 144.48 902.704 145.134 902.462 145.773C902.225 146.406 901.811 147.114 901.219 147.895C900.633 148.67 899.819 149.617 898.777 150.736L894.694 155.104V155.246H903.145V157.199H891.675ZM911.322 148.108C911.322 150.345 911.029 152.405 910.443 154.287C909.863 156.163 909.031 157.891 907.948 159.471H906.102C906.528 158.886 906.924 158.163 907.291 157.305C907.664 156.453 907.99 155.518 908.268 154.5C908.546 153.476 908.762 152.419 908.916 151.33C909.076 150.236 909.156 149.161 909.156 148.108C909.156 146.699 909.019 145.27 908.747 143.82C908.475 142.37 908.108 141.023 907.646 139.78C907.185 138.538 906.67 137.525 906.102 136.744H907.948C909.031 138.324 909.863 140.056 910.443 141.938C911.029 143.814 911.322 145.871 911.322 148.108Z" fill="#F4F4F4"/>
<path d="M876.2 62.2998H841.4V68.8999H876.2V62.2998Z" fill="#DD1212"/>
<path d="M876.2 78.6001H841.4V85.2002H876.2V78.6001Z" fill="#DD1212"/>
<path d="M829.6 94.2998C840.977 94.2998 850.2 85.0773 850.2 73.7002C850.2 62.3231 840.977 53.1001 829.6 53.1001C818.223 53.1001 809 62.3231 809 73.7002C809 85.0773 818.223 94.2998 829.6 94.2998Z" fill="#FF2727"/>
<path d="M888 94.2998C899.378 94.2998 908.601 85.0773 908.601 73.7002C908.601 62.3231 899.378 53.1001 888 53.1001C876.623 53.1001 867.4 62.3231 867.4 73.7002C867.4 85.0773 876.623 94.2998 888 94.2998Z" fill="#FF2727"/>
<path d="M520.7 68.6001H485.9V78.8999H520.7V68.6001Z" fill="#DBDBDB"/>
<path d="M474 94.2998C485.378 94.2998 494.601 85.0773 494.601 73.7002C494.601 62.3231 485.378 53.1001 474 53.1001C462.623 53.1001 453.4 62.3231 453.4 73.7002C453.4 85.0773 462.623 94.2998 474 94.2998Z" fill="#F4F4F4"/>
<path d="M532.5 94.2998C543.878 94.2998 553.101 85.0773 553.101 73.7002C553.101 62.3231 543.878 53.1001 532.5 53.1001C521.123 53.1001 511.9 62.3231 511.9 73.7002C511.9 85.0773 521.123 94.2998 532.5 94.2998Z" fill="#F4F4F4"/>
<path d="M114.975 67.3984L82.7578 54.2476L79.3945 62.4871L111.612 75.6379L114.975 67.3984Z" fill="#DBDBDB"/>
<path d="M44.1369 96.4503L63.9277 67.8237L55.4547 61.966L35.6639 90.5925L44.1369 96.4503Z" fill="#DBDBDB"/>
<path d="M125.1 95.7002C136.477 95.7002 145.7 86.4772 145.7 75.1001C145.7 63.723 136.477 54.5 125.1 54.5C113.723 54.5 104.5 63.723 104.5 75.1001C104.5 86.4772 113.723 95.7002 125.1 95.7002Z" fill="#F4F4F4"/>
<path d="M35.6995 120.7C47.0765 120.7 56.2996 111.477 56.2996 100.1C56.2996 88.723 47.0765 79.5 35.6995 79.5C24.3224 79.5 15.0996 88.723 15.0996 100.1C15.0996 111.477 24.3224 120.7 35.6995 120.7Z" fill="#F4F4F4"/>
<path d="M70.7986 79.5C85.3789 79.5 97.1985 67.6804 97.1985 53.1001C97.1985 38.5198 85.3789 26.7002 70.7986 26.7002C56.2183 26.7002 44.3984 38.5198 44.3984 53.1001C44.3984 67.6804 56.2183 79.5 70.7986 79.5Z" fill="#FF2727"/>
<path d="M244.368 78.8228L342.768 78.8228V68.5229L244.368 68.5229V78.8228Z" fill="#82EF53"/>
<path d="M320.832 54.5178L347.277 80.9633L354.56 73.6803L328.115 47.2349L320.832 54.5178Z" fill="#82EF53"/>
<path d="M328.207 100.28L354.652 73.8344L347.369 66.5514L320.924 92.9969L328.207 100.28Z" fill="#82EF53"/>
<path d="M675.902 44.5254V102.825H686.202V44.5254H675.902Z" fill="#82EF53"/>
<path d="M710.2 68.6003H651.9V78.9001H710.2V68.6003Z" fill="#82EF53"/>
</svg>
