<svg width="25" height="20" viewBox="0 0 25 20" fill="none" xmlns="http://www.w3.org/2000/svg">
<path d="M1.00049 6.19995C3.20049 7.79995 5.20078 9.2999 7.30078 10.8999L10.7007 13.3999C11.3007 13.7999 11.9005 14 12.5005 14C13.1005 14 13.7008 13.7999 14.3008 13.3999C14.7008 13.0999 15.1009 12.8 15.4009 12.5C15.6009 12.4 15.8009 12.2001 15.9009 12.1001L17.2007 11.1001C19.4007 9.5001 21.6008 7.79995 23.8008 6.19995C24.0008 6.09995 24.0005 5.89995 24.0005 5.69995C24.0005 5.29995 24.0005 5.0001 24.0005 4.6001C24.0005 4.3001 24.0005 4.0001 24.0005 3.6001C24.0005 2.1001 22.7007 0.800049 21.2007 0.800049C15.2007 0.800049 9.30059 0.800049 3.60059 0.800049C2.70059 0.800049 2.00088 1.1999 1.40088 1.8999C1.10088 2.2999 0.900781 2.79995 0.800781 3.19995V5.8999L1.00049 6.19995C0.900488 6.19995 0.900488 6.19995 1.00049 6.19995ZM2.90088 4.1001V3.8999C2.90088 3.3999 3.20068 3.1001 3.70068 3.1001C5.20068 3.1001 6.60059 3.1001 8.10059 3.1001C8.80059 3.1001 9.50078 3.1001 10.3008 3.1001H21.1006C21.7006 3.1001 22.0005 3.4 22.0005 4C22.0005 4.1 22.0005 4.20005 22.0005 4.30005C22.0005 4.50005 22.0005 4.8001 22.0005 5.1001C22.0005 5.1001 22.0009 5.19995 21.9009 5.19995C19.3009 7.19995 16.4005 9.2999 13.0005 11.8999C12.6005 12.1999 12.4005 12.1999 12.0005 11.8999C9.10049 9.7999 6.10059 7.50005 3.10059 5.30005C3.10059 5.30005 3.00049 5.2001 3.00049 5.1001C2.90049 4.7001 2.90088 4.4001 2.90088 4.1001Z" fill="#F4F4F4"/>
<path d="M24 8.3999V8.30005C24 8.30005 24 8.29995 24 8.19995V7.8999L23.8003 8.1001C23.7003 8.2001 23.5004 8.2999 23.4004 8.3999C23.0004 8.6999 22.6003 8.99995 22.3003 9.19995C22.1003 9.29995 22.1001 9.49995 22.1001 9.69995C22.1001 11.7 22.1001 13.8 22.1001 15.8V16.8C22.1001 17.4 21.8002 17.7 21.2002 17.7C15.4002 17.7 9.70039 17.7 3.90039 17.7C3.30039 17.7 3 17.4 3 16.8C3 16.2 3 15.7001 3 15.1001C3 13.4001 3 11.7001 3 10.1001C3 9.6001 2.8 9.3 2.5 9C2.2 8.8 1.9001 8.5999 1.6001 8.3999C1.5001 8.2999 1.3002 8.2001 1.2002 8.1001L1 7.8999V17.3C1 17.3 1 17.2999 1 17.3999V17.5C1.3 18.8 2.40029 19.8 3.80029 19.8C7.00029 19.8 9.90029 19.8 12.8003 19.8C15.8003 19.8 18.6004 19.8 21.4004 19.8C22.9004 19.8 24.2002 18.5 24.2002 17C24.2002 14.9 24.2002 12.7001 24.2002 10.6001L24 8.3999Z" fill="#F4F4F4"/>
</svg>
