<svg width="15" height="12" viewBox="0 0 15 12" fill="none" xmlns="http://www.w3.org/2000/svg">
<path d="M0.398926 3.3999C1.69893 4.3999 2.89873 5.29995 4.19873 6.19995L6.19873 7.69995C6.49873 7.89995 6.89883 8.1001 7.29883 8.1001C7.69883 8.1001 7.99883 7.99995 8.29883 7.69995C8.49883 7.49995 8.79854 7.39995 8.99854 7.19995C9.09854 7.09995 9.19883 7 9.29883 7L10.0986 6.3999C11.3986 5.3999 12.6985 4.5 13.9985 3.5C14.0985 3.4 14.0986 3.29995 14.0986 3.19995C14.0986 2.99995 14.0986 2.8001 14.0986 2.6001C14.0986 2.4001 14.0986 2.2 14.0986 2C14.0986 1.1 13.2989 0.300049 12.3989 0.300049C8.79893 0.300049 5.29893 0.300049 1.89893 0.300049C1.39893 0.300049 0.898633 0.5 0.598633 1C0.398633 1.2 0.298828 1.50005 0.298828 1.80005L0.398926 3.3999ZM1.59863 2.19995V2.1001C1.59863 1.8001 1.79863 1.6001 2.09863 1.6001C2.99863 1.6001 3.79873 1.6001 4.69873 1.6001C5.09873 1.6001 5.59854 1.6001 5.99854 1.6001H12.3989C12.7989 1.6001 12.8989 1.8001 12.8989 2.1001C12.8989 2.2001 12.8989 2.20005 12.8989 2.30005C12.8989 2.40005 12.8989 2.60005 12.8989 2.80005V2.8999C11.2989 4.0999 9.59863 5.2999 7.59863 6.8999C7.39863 7.0999 7.19853 7.0999 6.99854 6.8999C5.29854 5.5999 3.49873 4.2999 1.69873 2.8999V2.80005C1.59873 2.50005 1.59863 2.29995 1.59863 2.19995Z" fill="#82EF53"/>
<path d="M14.0981 4.80005C14.0981 4.70005 14.0981 4.70005 14.0981 4.80005C14.0981 4.70005 14.0981 4.69995 14.0981 4.69995V4.5L13.998 4.6001C13.898 4.7001 13.7982 4.70005 13.6982 4.80005C13.4982 5.00005 13.198 5.10005 12.998 5.30005C12.898 5.40005 12.8984 5.5001 12.8984 5.6001C12.8984 6.8001 12.8984 7.99995 12.8984 9.19995V9.80005C12.8984 10.1 12.6984 10.3 12.3984 10.3C8.99844 10.3 5.49814 10.3 2.09814 10.3C1.79814 10.3 1.59814 10.1 1.59814 9.80005C1.59814 9.50005 1.59814 9.10005 1.59814 8.80005C1.59814 7.80005 1.59814 6.80005 1.59814 5.80005C1.59814 5.50005 1.49834 5.29995 1.29834 5.19995C1.09834 5.09995 0.89834 4.90005 0.79834 4.80005C0.69834 4.70005 0.598145 4.7001 0.598145 4.6001L0.498047 4.5V10.1001C0.698047 10.9001 1.39814 11.5 2.09814 11.5C3.99814 11.5 5.79805 11.5 7.49805 11.5C9.29805 11.5 10.9981 11.5 12.5981 11.5C13.4981 11.5 14.2983 10.7 14.2983 9.80005C14.2983 8.50005 14.2983 7.2 14.2983 6L14.0981 4.80005Z" fill="#82EF53"/>
</svg>
