<svg width="19" height="20" viewBox="0 0 19 20" fill="none" xmlns="http://www.w3.org/2000/svg">
<path d="M18.2002 14.4999C17.4002 13.6999 16.6 12.8 15.5 11.8C14.9 11.2 14.0003 11.0999 13.3003 11.4999C13.0003 11.6999 12.7004 11.8999 12.4004 12.1999C12.1004 12.3999 11.9002 12.6998 11.7002 12.8998C11.6002 12.9998 11.6 13 11.5 13.1C11.4 13.1 11.4003 12.9999 11.3003 12.9999C11.1003 12.8999 10.9003 12.7999 10.8003 12.6999C9.90029 12.1999 9.10039 11.5 8.40039 10.6C7.80039 9.9 7.1001 9.1 6.6001 8.1C6.7001 8 6.80039 7.89995 6.90039 7.79995C7.30039 7.39995 7.7 7.09985 8 6.69985C8.7 5.89985 8.7 4.8 8 4.1C7.1 3.1 6.20039 2.2999 5.40039 1.4999C4.50039 0.699902 3.5 0.699902 2.5 1.4999C2.1 1.8999 1.70029 2.29985 1.30029 2.69985C1.20029 2.79985 1.00039 3 0.900391 3.1C0.500391 3.5 0.200098 4 0.100098 4.6C0.100098 4.8 0.1 4.9 0 5.1C0 5.2 0 5.19995 0 5.29995V5.6C0 5.7 0 5.7998 0 5.8998C0 6.0998 0.100098 6.4 0.100098 6.6C0.300098 7.6 0.600195 8.5 1.2002 9.6C2.9002 12.9 5.30039 15.6 8.40039 17.6C9.90039 18.5 11.1004 19.0998 12.4004 19.3998C12.7004 19.4998 13.0003 19.5 13.3003 19.6C13.4003 19.6 13.6002 19.5999 13.7002 19.6999C13.7002 19.6999 13.7003 19.6999 13.8003 19.6999H14.6001C14.6001 19.6999 14.6002 19.6999 14.7002 19.6999C15.4002 19.5999 16.0004 19.2998 16.4004 18.8998C17.1004 18.1998 17.6001 17.7 18.1001 17.1C18.9001 16.4 18.9002 15.2999 18.2002 14.4999ZM5.5 7.19985C4.8 7.79985 4.8002 8.0998 5.2002 8.8998C5.6002 9.6998 6.10029 10.4 6.80029 11.3C7.80029 12.5 8.9 13.4 10 14.1C10.4 14.3 10.8001 14.4999 11.1001 14.6999C11.5001 14.8999 12.0003 14.7999 12.3003 14.4999C12.6003 14.1999 12.9002 13.9 13.2002 13.6C13.3002 13.5 13.5001 13.2999 13.6001 13.1999C13.6001 13.1999 13.7003 13.0999 13.8003 12.9999C14.1003 12.6999 14.4002 12.6999 14.7002 12.9999C15.1002 13.3999 15.5004 13.7999 15.9004 14.1999L16.1001 14.3998C16.2001 14.4998 16.3003 14.6 16.3003 14.6C16.5003 14.8 16.8 15.1 17 15.3C17.2 15.6 17.2 15.8 17 16.1C17 16.2 16.9003 16.2 16.8003 16.3C16.6003 16.5 16.5003 16.6 16.3003 16.8C16.0003 17.1 15.8 17.3 15.5 17.6C15.1 18 14.5003 18.1999 13.8003 18.1999C12.6003 18.0999 11.5002 17.5999 10.7002 17.1999C7.5002 15.5999 5 13.3 3 10.1C2.2 8.8 1.70039 7.5998 1.40039 6.3998C1.40039 6.2998 1.40039 6.19985 1.40039 6.19985C1.40039 5.99985 1.40039 5.89985 1.40039 5.69985V5.4999C1.40039 4.8999 1.6001 4.3998 2.1001 3.8998C2.4001 3.6998 2.60039 3.39985 2.90039 3.19985C3.10039 2.99985 3.20039 2.89985 3.40039 2.69985C3.80039 2.29985 4.0002 2.3999 4.2002 2.4999C4.3002 2.4999 4.40039 2.59985 4.40039 2.69985C5.00039 3.29985 5.70029 4 6.30029 4.6L6.6001 4.8998L6.7002 4.9999C7.0002 5.2999 7.0002 5.59995 6.7002 5.79995C6.4002 6.39995 6 6.69985 5.5 7.19985Z" fill="#F4F4F4"/>
</svg>
