<svg width="12" height="12" viewBox="0 0 12 12" fill="none" xmlns="http://www.w3.org/2000/svg">
<path d="M5.69971 0.300049C2.59971 0.300049 0.0996094 2.7999 0.0996094 5.8999C0.0996094 8.9999 2.59971 11.5 5.69971 11.5C8.79971 11.5 11.2998 8.9999 11.2998 5.8999C11.2998 2.7999 8.79971 0.300049 5.69971 0.300049ZM0.799805 6.30005H1.99951C1.99951 6.90005 2.0998 7.3999 2.2998 7.8999H1.19971C0.899707 7.3999 0.799805 6.90005 0.799805 6.30005ZM7.3999 5.6001C7.3999 5.0001 7.29971 4.5 7.19971 4H8.3999C8.5999 4.5 8.69971 5.0001 8.69971 5.6001H7.3999ZM4.7998 7.8999C4.6998 7.3999 4.69961 6.80005 4.59961 6.30005H6.69971C6.69971 6.80005 6.59951 7.3999 6.49951 7.8999H4.7998ZM6.3999 8.6001C6.1999 9.2001 5.99971 9.9 5.69971 10.5C5.39971 9.9 5.09951 9.2001 4.99951 8.6001H6.3999ZM4.59961 5.6001C4.59961 5.0001 4.6998 4.5 4.7998 4H6.49951C6.59951 4.5 6.69971 5.0001 6.69971 5.6001H4.59961ZM4.99951 3.30005C5.19951 2.40005 5.49971 1.80005 5.69971 1.30005C5.89971 1.70005 6.1999 2.40005 6.3999 3.30005H4.99951ZM7.09961 3.30005C6.89961 2.40005 6.5999 1.6001 6.3999 1.1001C6.6999 1.3001 7.49971 2.00005 8.19971 3.30005H7.09961ZM4.99951 1.1001C4.79951 1.6001 4.4998 2.30005 4.2998 3.30005H3.2998C3.7998 2.00005 4.69951 1.3001 4.99951 1.1001ZM4.09961 4C3.99961 4.5 3.8999 5.0001 3.8999 5.6001H2.59961C2.59961 5.0001 2.6999 4.5 2.8999 4H4.09961ZM1.99951 5.6001H0.799805C0.799805 5.0001 0.999707 4.5 1.19971 4H2.2998C2.0998 4.5 1.99951 5.0001 1.99951 5.6001ZM2.69971 6.30005H3.99951C3.99951 6.80005 4.09961 7.3999 4.09961 7.8999H2.99951C2.79951 7.3999 2.69971 6.90005 2.69971 6.30005ZM4.19971 8.6001C4.39971 9.3001 4.59951 10 4.99951 10.8C4.79951 10.6 3.79971 9.9001 3.19971 8.6001H4.19971ZM6.2998 10.8C6.6998 10.1 6.89961 9.3001 7.09961 8.6001H8.09961C7.49961 9.9001 6.5998 10.6 6.2998 10.8ZM7.2998 7.8999C7.3998 7.3999 7.3999 6.80005 7.3999 6.30005H8.69971C8.69971 6.90005 8.5999 7.3999 8.3999 7.8999H7.2998ZM9.3999 6.30005H10.5996C10.5996 6.90005 10.3997 7.3999 10.1997 7.8999H9.09961C9.29961 7.3999 9.2999 6.90005 9.3999 6.30005ZM9.3999 5.6001C9.3999 5.0001 9.29961 4.5 9.09961 4H10.1997C10.3997 4.5 10.4996 5.0001 10.5996 5.6001H9.3999ZM9.7998 3.30005H8.8999C8.5999 2.50005 8.1998 1.9 7.7998 1.5C8.5998 1.9 9.2998 2.50005 9.7998 3.30005ZM3.59961 1.5C3.19961 1.9 2.79951 2.50005 2.49951 3.30005H1.59961C1.99961 2.50005 2.69961 1.9 3.59961 1.5ZM1.49951 8.6001H2.3999C2.6999 9.3001 3.09951 9.8999 3.49951 10.3999C2.69951 9.9999 1.99951 9.4001 1.49951 8.6001ZM7.7998 10.3999C8.1998 9.9999 8.5999 9.4001 8.8999 8.6001H9.7998C9.2998 9.4001 8.5998 9.9999 7.7998 10.3999Z" fill="#82EF53"/>
</svg>
