<svg width="20" height="20" viewBox="0 0 20 20" fill="none" xmlns="http://www.w3.org/2000/svg">
<path d="M19.3999 6.50005C19.3999 9.00005 19.3999 11.6001 19.3999 14.1001C19.3999 14.2001 19.3999 14.2001 19.3999 14.3001C19.3999 14.7001 19.2998 15 19.2998 15.4C19.0998 16.6 18.5997 17.6 17.6997 18.4C16.6997 19.3 15.4997 19.6 14.1997 19.7C13.7997 19.7 13.2999 19.7001 12.8999 19.8001C10.9999 19.8001 9.09971 19.8001 7.19971 19.8001C7.09971 19.8001 6.9999 19.8001 6.8999 19.8001C6.0999 19.8001 5.39961 19.8001 4.59961 19.6001C2.99961 19.2001 1.89971 18.3 1.19971 16.9C0.799707 16 0.599609 15 0.599609 14C0.599609 12 0.599609 9.89995 0.599609 7.89995C0.599609 6.99995 0.599805 6.00015 0.799805 5.10015C1.1998 3.50015 1.99961 2.30015 3.59961 1.60015C4.49961 1.20015 5.4999 1.00005 6.3999 1.00005C8.9999 0.900049 11.5997 0.900049 14.1997 1.00005C14.9997 1.00005 15.6999 1.20005 16.3999 1.50005C18.0999 2.30005 18.9998 3.70005 19.2998 5.50005C19.2998 5.90005 19.2999 6.20005 19.3999 6.50005ZM9.8999 18.2C10.3999 18.2 10.8999 18.2 11.3999 18.2C12.4999 18.2 13.5996 18.2001 14.5996 18C16.0996 17.8 16.9999 17 17.3999 15.5C17.4999 14.9 17.5996 14.3 17.5996 13.7C17.5996 11.8 17.5996 9.90005 17.5996 8.00005C17.5996 7.20005 17.5995 6.5 17.4995 5.7C17.2995 4.2 16.3999 3.1001 14.8999 2.8001C14.2999 2.7001 13.5999 2.60015 12.8999 2.60015C11.0999 2.60015 9.39961 2.60015 7.59961 2.60015C6.79961 2.60015 5.89961 2.6001 5.09961 2.8001C3.69961 3.0001 2.6999 3.9001 2.3999 5.3001C2.2999 5.9001 2.19971 6.6001 2.19971 7.3001C2.19971 8.8001 2.19971 10.4 2.19971 11.9C2.19971 13 2.1998 14.0001 2.2998 15.1001C2.3998 16.2001 2.8999 17.0001 3.8999 17.6001C4.4999 17.9001 5.1998 18.1001 5.7998 18.1001C7.1998 18.1001 8.5999 18.2 9.8999 18.2Z" fill="#F4F4F4"/>
<path d="M9.99951 15.3002C7.29951 15.3002 5.09961 13.1 5.09961 10.4C5.09961 7.70001 7.29951 5.5002 9.99951 5.6002C12.6995 5.6002 14.7998 7.80011 14.7998 10.5001C14.7998 13.1001 12.5995 15.3002 9.99951 15.3002ZM6.7998 10.4C6.7998 12.1 8.1999 13.5001 9.8999 13.5001C11.5999 13.5001 12.9996 12.1 13.0996 10.4C13.0996 8.70001 11.6995 7.20006 9.99951 7.20006C8.19951 7.30006 6.7998 8.70001 6.7998 10.4Z" fill="#F4F4F4"/>
<path d="M16.1006 5.39995C16.1006 5.99995 15.6005 6.50005 15.0005 6.50005C14.4005 6.50005 13.9008 5.99995 13.8008 5.39995C13.8008 4.79995 14.3009 4.3001 14.9009 4.3001C15.6009 4.2001 16.1006 4.69995 16.1006 5.39995Z" fill="#F4F4F4"/>
</svg>
