<svg width="20" height="20" viewBox="0 0 20 20" fill="none" xmlns="http://www.w3.org/2000/svg">
<path d="M1.1001 17.5C1.1001 12.8 1.1001 8.0999 1.1001 3.3999C1.1001 3.2999 1.1001 3.29995 1.1001 3.19995C1.2001 2.09995 2 1.3 3 1C3.1 1 3.30039 0.899902 3.40039 0.899902C8.10039 0.899902 12.8 0.899902 17.5 0.899902C17.6 0.899902 17.7003 0.9 17.8003 1C19.0003 1.3 19.9004 2.3 19.9004 3.5C19.9004 8.1 19.9004 12.6 19.9004 17.2C19.9004 17.4 19.9003 17.6 19.8003 17.7C19.5003 18.9 18.5002 19.8 17.2002 19.8C15.9002 19.8 14.7004 19.8 13.4004 19.8C13.2004 19.8 13.2002 19.7001 13.2002 19.6001C13.2002 17.5001 13.2002 15.4 13.2002 13.3C13.2002 13.2 13.2002 13.2001 13.2002 13.1001C13.2002 13.1001 13.2003 13.1001 13.3003 13.1001C14.0003 13.1001 14.8 13.1001 15.5 13.1001C15.8 13.1001 15.9 13 16 12.7C16.1 12 16.2002 11.4 16.2002 10.7C16.3002 10.2 16.1001 10 15.6001 10C14.9001 10 14.1004 10 13.4004 10C13.3004 10 13.2002 10 13.2002 9.80005C13.2002 9.20005 13.2002 8.5999 13.2002 7.8999C13.2002 7.1999 13.5002 6.90005 14.2002 6.80005C14.7002 6.80005 15.1001 6.80005 15.6001 6.80005C16.0001 6.80005 16.1001 6.60005 16.1001 6.30005C16.1001 5.80005 16.1001 5.19995 16.1001 4.69995C16.1001 4.29995 15.9 4.19995 15.5 4.19995C15.2 4.19995 14.9001 4.19995 14.6001 4.19995C14.0001 4.19995 13.4004 4.20005 12.9004 4.30005C11.9004 4.50005 11.2002 5.00005 10.7002 5.80005C10.3002 6.50005 10.2002 7.2 10.2002 8C10.2002 8.6 10.2002 9.20005 10.2002 9.80005C10.2002 9.90005 10.2 10 10 10C9.5 10 9.1001 10 8.6001 10C8.1001 10 8 10.2001 8 10.6001C8 11.3001 8 11.9001 8 12.6001C8 12.9001 8.2 13.1001 8.5 13.1001C9 13.1001 9.5 13.1001 10 13.1001C10.2 13.1001 10.2002 13.2 10.2002 13.3C10.2002 15.4 10.2002 17.5001 10.2002 19.6001C10.2002 19.7001 10.2002 19.7 10.2002 19.8C10.1002 19.8 10.1001 19.8 10.1001 19.8C7.9001 19.8 5.70039 19.8 3.40039 19.8C2.10039 19.8 1.20039 19 0.900391 17.7C1.20039 17.7 1.2001 17.6 1.1001 17.5Z" fill="#F4F4F4"/>
</svg>
