<svg width="12" height="12" viewBox="0 0 12 12" fill="none" xmlns="http://www.w3.org/2000/svg">
<path d="M10.7993 8.3999C10.2993 7.8999 9.79922 7.40005 9.19922 6.80005C8.79922 6.50005 8.29941 6.4001 7.89941 6.6001C7.69941 6.7001 7.49941 6.9 7.39941 7C7.19941 7.1 7.09902 7.2999 6.99902 7.3999L6.89941 7.5H6.79932C6.69932 7.4 6.59902 7.40005 6.49902 7.30005C5.99902 7.00005 5.49902 6.6001 4.99902 6.1001C4.59902 5.7001 4.19941 5.2001 3.89941 4.6001C3.99941 4.5001 3.99912 4.4999 4.09912 4.3999C4.29912 4.1999 4.59932 3.99995 4.79932 3.69995C5.19932 3.19995 5.19932 2.59995 4.79932 2.19995C4.19932 1.59995 3.69932 1.09995 3.29932 0.699951C2.79932 0.199951 2.09912 0.199951 1.59912 0.699951C1.29912 0.899951 1.09941 1.1999 0.899414 1.3999C0.799414 1.4999 0.699219 1.6001 0.699219 1.6001C0.499219 1.9001 0.299219 2.2 0.199219 2.5C0.199219 2.6 0.199219 2.70005 0.199219 2.80005V2.8999V3.1001C0.199219 3.2001 0.199219 3.20005 0.199219 3.30005C0.199219 3.40005 0.199316 3.59995 0.299316 3.69995C0.399316 4.29995 0.599414 4.9 0.899414 5.5C1.89941 7.5 3.39922 9.10005 5.19922 10.3C6.09922 10.9 6.79912 11.1999 7.59912 11.3999C7.79912 11.3999 7.89912 11.5 8.09912 11.5C8.19912 11.5 8.29932 11.5 8.29932 11.5H8.79932C9.19932 11.4 9.59932 11.3 9.79932 11C10.1993 10.6 10.4993 10.2999 10.7993 9.8999C11.2993 9.4999 11.1993 8.8999 10.7993 8.3999ZM3.19922 4C2.79922 4.4 2.79902 4.6 2.99902 5C3.19902 5.5 3.49902 5.8999 3.99902 6.3999C4.59902 7.0999 5.19941 7.6001 5.89941 8.1001C6.09941 8.2001 6.39912 8.4 6.59912 8.5C6.89912 8.6 7.09932 8.5999 7.29932 8.3999C7.49932 8.1999 7.69932 7.9999 7.79932 7.8999C7.89932 7.7999 7.99912 7.7001 8.09912 7.6001L8.19922 7.5C8.39922 7.3 8.49922 7.3 8.69922 7.5C8.89922 7.7 9.19941 7.99995 9.39941 8.19995L9.49902 8.30005L9.59912 8.3999C9.69912 8.4999 9.89902 8.70005 9.99902 8.80005C10.099 9.00005 10.099 9.10005 9.99902 9.30005L9.89941 9.3999C9.79941 9.4999 9.69912 9.59995 9.59912 9.69995C9.39912 9.89995 9.29912 9.99995 9.09912 10.2C8.79912 10.5 8.49912 10.6 8.09912 10.5C7.39912 10.4 6.69922 10.1999 6.19922 9.8999C4.29922 8.9999 2.79912 7.49995 1.59912 5.69995C1.09912 4.89995 0.799219 4.2 0.699219 3.5V3.3999C0.699219 3.2999 0.699219 3.2001 0.699219 3.1001V3C0.699219 2.6 0.799121 2.3001 1.09912 2.1001C1.29912 2.0001 1.39912 1.79995 1.59912 1.69995C1.69912 1.59995 1.79941 1.4999 1.89941 1.3999C2.09941 1.1999 2.29941 1.20005 2.39941 1.30005L2.49902 1.3999C2.89902 1.7999 3.29912 2.2 3.59912 2.5L3.79932 2.69995C3.79932 2.69995 3.79941 2.70005 3.89941 2.80005C4.09941 3.00005 4.09941 3.10005 3.89941 3.30005C3.79941 3.50005 3.49922 3.7 3.19922 4Z" fill="#82EF53"/>
</svg>
