<svg width="62" height="9" viewBox="0 0 62 9" fill="none" xmlns="http://www.w3.org/2000/svg">
<path d="M11.1992 1.69995C11.1992 1.39995 10.8991 1.1001 10.5991 1.1001H8.69922L9.59912 1.69995H11.1992Z" fill="white"/>
<path d="M4.09912 1.1001H1.19922L2.09912 1.69995H4.89941L4.09912 1.1001Z" fill="white"/>
<path d="M5.30029 2.30005H4L4.90039 2.8999H5.30029C6.00029 2.8999 6.5 3.4001 6.5 4.1001V8H7.1001V4.1001C7.1001 3.1001 6.30029 2.30005 5.30029 2.30005Z" fill="white"/>
<path d="M12.6001 0.699951C12.2001 0.299951 11.6 0.100098 11 0.100098H0.5L1.40039 0.699951H11.1001C12.0001 0.699951 12.8003 1.4999 12.8003 2.3999H10.6001C9.6001 2.3999 8.80029 3.19995 8.80029 4.19995V8.1001H9.40039V4.19995C9.40039 3.49995 9.9001 3 10.6001 3H11.8003C12.0003 3 12.1003 3 12.3003 3C12.9003 3.1 13.3004 3.3001 13.4004 3.6001V3V2.3999C13.3004 1.6999 13.1001 1.09995 12.6001 0.699951Z" fill="white"/>
<path d="M21.3994 2.19995H19.3994V6.6001H18.1992V2.19995H16.1992V1.30005H21.499V2.19995H21.3994Z" fill="white"/>
<path d="M27.9995 4C27.9995 6 26.3998 6.80005 24.7998 6.80005C23.2998 6.80005 21.5996 6.1 21.5996 4C21.5996 2 23.1998 1.19995 24.7998 1.19995C26.3998 1.19995 27.9995 1.9 27.9995 4ZM26.6997 4C26.6997 3 26.0998 2.19995 24.7998 2.19995C23.4998 2.19995 22.8999 3 22.8999 4C22.8999 5.1 23.4998 5.8999 24.7998 5.8999C26.0998 5.8999 26.6997 5 26.6997 4Z" fill="white"/>
<path d="M33.8989 6.6001L30.7988 4.69995L29.2988 6.6001H27.7988L30.0986 3.80005L27.9985 1.19995L30.8989 2.8999L32.1987 1.19995H33.6987L31.5986 3.80005L33.8989 6.6001Z" fill="white"/>
<path d="M40.0981 1.30005V6.6001H38.8984V4.3999H35.5981V6.6001H34.3984V1.30005H35.5981V3.5H38.8984V1.30005H40.0981Z" fill="white"/>
<path d="M44.6992 1.30005H43.0991L40.6992 6.6001H41.999L43.8994 2.19995L45.7993 6.6001H47.0991L44.6992 1.30005Z" fill="white"/>
<path d="M55.3999 1.30005L53.4995 6.6001H52.0996L50.9995 3L49.8999 6.6001H48.4995L46.5996 1.30005H47.8999L49.1997 5.3999L50.3999 1.30005H51.5996L52.7998 5.3999L54.0996 1.30005H55.3999Z" fill="white"/>
<path d="M58.2983 4.19995L55.8984 6.3999V1.3999H57.0981V3.8999L59.7983 1.3999H61.3984L59.0981 3.5L61.498 6.80005H59.998L58.2983 4.19995Z" fill="white"/>
</svg>
