<svg width="206" height="27" viewBox="0 0 206 27" fill="none" xmlns="http://www.w3.org/2000/svg">
<path d="M36.4033 5.70029C36.4033 4.70029 35.5029 3.80029 34.5029 3.80029H28.2031L31.1025 5.70029H36.4033Z" fill="white"/>
<path d="M12.4014 3.80029H2.80078L5.70117 5.70029H15.3008L12.4014 3.80029Z" fill="white"/>
<path d="M16.502 7.6001H12.1016L15.002 9.5001H16.502C18.802 9.5001 20.6016 11.3001 20.6016 13.6001V26.5001H22.502V13.6001C22.402 10.3001 19.802 7.6001 16.502 7.6001Z" fill="white"/>
<path d="M41.1016 2.2001C39.7016 0.8001 37.7021 0.100098 35.7021 0.100098H0.402344L3.30176 2.0001H35.8018C38.9018 2.0001 41.4023 4.5001 41.4023 7.6001H33.9023C30.6023 7.6001 27.9023 10.3001 27.9023 13.6001V26.5001H29.8018V13.6001C29.8018 11.3001 31.6023 9.5001 33.9023 9.5001H37.8018C38.3018 9.5001 38.9023 9.5001 39.4023 9.6001C41.3023 9.8001 42.8021 10.6001 43.2021 11.7001V9.5001V7.6001C43.4021 5.6001 42.6016 3.7001 41.1016 2.2001Z" fill="white"/>
<path d="M70.6016 7.49981H63.8018V22.1998H59.7021V7.49981H52.9023V4.2998H70.6016V7.49981Z" fill="white"/>
<path d="M92.7012 13.3C92.7012 20.2 87.201 22.6 82.001 22.6C76.801 22.6 71.3008 20.1 71.3008 13.3C71.3008 6.5 76.801 4 82.001 4C87.201 4 92.7012 6.5 92.7012 13.3ZM88.501 13.3C88.501 9.8 86.501 7.1 82.001 7.1C77.501 7.1 75.501 9.8 75.501 13.3C75.501 16.8 77.501 19.5 82.001 19.5C86.501 19.5 88.501 16.8 88.501 13.3Z" fill="white"/>
<path d="M112.502 22.2999L102.102 15.7999L97.002 22.2999H92.002L99.8018 12.9999L92.7021 4.3999L102.502 10.1999L107.002 4.3999H112.002L104.902 12.9999L112.502 22.2999Z" fill="white"/>
<path d="M133.501 4.2998V22.1998H129.401V14.7998H118.401V22.1998H114.301V4.2998H118.401V11.6998H129.401V4.2998H133.501Z" fill="white"/>
<path d="M148.701 4.2998H143.601L135.301 22.2998H139.701L146.201 7.49981L152.601 22.2998H157.001L148.701 4.2998Z" fill="white"/>
<path d="M184.601 4.2998L178.201 22.1998H173.401L169.701 9.99981L166.001 22.1998H161.201L154.801 4.2998H159.201L163.701 17.8998L167.801 4.2998H171.701L175.801 17.8998L180.201 4.2998H184.601Z" fill="white"/>
<path d="M194.402 13.9998L186.402 21.2998V4.2998H190.502V12.7998L199.602 4.2998H205.002L197.302 11.2998L205.402 22.2998H200.502L194.402 13.9998Z" fill="white"/>
</svg>
