<svg width="628" height="78" viewBox="0 0 628 78" fill="none" xmlns="http://www.w3.org/2000/svg">
<path d="M73.7007 15.2001H45.8003V75.8001H28.8003V15.2001H0.900391V2.1001H73.7007V15.2001Z" fill="white"/>
<path d="M164.701 38.9999C164.701 67.1999 142.101 77.3999 120.801 77.3999C99.5008 77.3999 76.8008 67.1999 76.8008 38.9999C76.8008 10.8999 99.5008 0.699939 120.801 0.699939C142.101 0.599939 164.701 10.8999 164.701 38.9999ZM147.501 38.9999C147.501 24.5999 139.201 13.4999 120.901 13.4999C102.601 13.4999 94.3008 24.5999 94.3008 38.9999C94.3008 53.4999 102.601 64.5999 120.901 64.5999C139.201 64.5999 147.501 53.4999 147.501 38.9999Z" fill="white"/>
<path d="M246.102 75.8001L203.301 49.0001L182.301 75.8001H161.602L193.602 37.4001L164.301 2.1001L204.501 25.8001L222.901 2.1001H243.501L214.202 37.4001L246.102 75.8001Z" fill="white"/>
<path d="M332.4 2.1001V75.8001H315.4V45.5001H270.4V75.8001H253.4V2.1001H270.4V32.4001H315.4V2.1001H332.4Z" fill="white"/>
<path d="M394.701 2.1001H373.801L339.701 75.8001H357.701L384.301 15.0001L410.701 75.8001H428.701L394.701 2.1001Z" fill="white"/>
<path d="M542.401 2.1001L516.301 75.8001H496.401L481.301 25.5001L466.201 75.8001H446.301L420.201 2.1001H438.201L456.501 58.0001L473.201 2.1001H489.201L505.901 58.0001L524.101 2.1001H542.401Z" fill="white"/>
<path d="M582.601 41.7001L549.801 71.6001V2.1001H566.801V37.0001L604.201 2.1001H626.201L594.601 30.8001L627.701 75.8001H607.601L582.601 41.7001Z" fill="white"/>
</svg>
