<svg width="104" height="58" viewBox="0 0 104 58" fill="none" xmlns="http://www.w3.org/2000/svg">
<path d="M72.7986 43H58.7986H42.3984V57.8999H58.7986H72.7986C72.8986 57.8999 72.8985 57.8999 72.9985 57.8999C90.4985 57.8999 103.398 46.0999 103.398 29.3999C103.398 12.6999 90.5985 0.899902 72.9985 0.899902C72.8985 0.899902 72.8986 0.899902 72.7986 0.899902H58.7986H42.3984V15.7998H58.7986H72.7986C79.9986 16.0998 84.7986 21.3999 84.7986 29.3999C84.7986 37.3999 79.9986 42.6 72.7986 43ZM54.6985 54.1001H46.4985V46.7002H54.6985V54.1001ZM54.6985 12H46.4985V4.6001H54.6985V12Z" fill="#F4F4F4"/>
<path d="M37.3074 4.1001L15.3074 1L16.7073 9.5C16.7073 9.5 0.607332 12.9 1.00733 13C1.50733 13.1 22.5073 15.6001 22.5073 15.6001L21.4075 6.7002L37.3074 4.1001Z" fill="white"/>
<path d="M36.9074 52.5L17.9074 41L15.8073 49.3999C15.8073 49.3999 -0.392713 46.1999 0.00728731 46.3999C0.407287 46.5999 18.7075 57.2998 18.7075 57.2998L21.2075 48.6997L36.9074 52.5Z" fill="white"/>
</svg>
