<svg width="1055" height="476" viewBox="0 0 1055 476" fill="none" xmlns="http://www.w3.org/2000/svg">
<path d="M1054.2 330.4C1054.2 332.2 1054.1 333.9 1054.1 335.7C1054.1 336.3 1054.1 336.8 1054 337.4C1054 338.5 1053.9 339.7 1053.8 340.8C1052.9 355.9 1050.7 370.6 1047.2 384.3C1034.5 434.5 1005.2 472.4 966.9 473.7C966.9 473.7 966.5 473.7 965.7 473.7C965.7 473.7 872.6 473.7 745.6 473.7C668.1 473.7 577.9 473.7 488.6 473.7C478 473.7 467.4 473.7 456.8 473.7C439.7 473.7 422.7 473.7 405.9 473.7C399.2 473.7 392.5 473.7 385.9 473.7C370 473.7 354.4 473.7 339 473.7C326.7 473.7 314.7 473.7 302.8 473.7C293 473.7 283.4 473.7 273.9 473.7H263.3C256.2 473.7 249.3 473.7 242.5 473.7C153.6 473.7 85.2002 473.7 58.7002 473.7C58.1002 473.3 57.6001 472.9 57.1001 472.4C50.9001 467.4 45.9 461.8 42 455.6C39.1 451 36.8002 446 35.2002 440.9C33.6002 435.8 32.6002 430.4 32.2002 424.9V424.8C32.2002 424.2 32.1001 423.7 32.1001 423.1C32.1001 422.4 32 421.7 32 421C32 420.5 32 420.1 32 419.6C32 418.6 32.0001 417.6 32.1001 416.6C32.4001 409.6 33.5 402.4 35.5 395.1C36.4 391.8 37.5002 388.4 38.7002 385C39.1002 383.8 39.6001 382.6 40.1001 381.4C41.6001 377.8 43.2001 374.1 45.1001 370.5C54.9001 351.3 69.9002 332.3 89.2002 315.2C106.1 300.2 121.7 289.5 133.2 277.4C135.6 274.9 137.9 272.2 139.9 269.5C141.9 266.8 143.7 264 145.3 261.1C152 248.4 154.6 232.8 151.2 210.4C150 202.6 148.1 193.9 145.4 184.2C141 168.8 140.3 154.4 142.2 141.1C143 135.2 144.4 129.5 146.2 124C146.5 123.2 146.7 122.5 147 121.7C151.5 109 158.3 97.3999 166.4 86.9999C173.4 77.9999 181.4 69.7999 189.7 62.5999C206.5 47.8999 224.5 36.7999 238.2 29.5999C245.9 25.4999 252.3 22.5999 256.2 20.9999C270.5 14.9999 286.2 10.4999 302.8 7.19992C316.9 4.39992 331.7 2.49991 346.7 1.49991C349.4 1.29991 352 1.19991 354.7 0.999908C362.2 0.599908 369.8 0.399902 377.4 0.399902C380.5 0.399902 383.5 0.399908 386.6 0.499908C391.7 0.599908 396.8 0.799915 401.9 1.09991C406.6 1.39991 411.3 1.79991 416 2.09991C419.9 2.39991 423.8 2.5999 427.6 2.8999C442.6 3.9999 456.6 5.2999 469.6 6.7999C499.8 10.2999 525 14.8999 546.3 20.1999C601.4 33.9999 630.8 52.6999 655 70.7999C670.9 82.7999 684.6 94.4999 701.8 104.5C730.3 120.9 768.5 132.3 843.1 131.6C846.7 131.6 850.4 131.5 854.3 131.4C870.8 131 886.2 132 900.5 134.2C983.1 147 1028 201.1 1045.5 262.4C1046.9 267.1 1048 271.9 1049.1 276.7C1049.4 278 1049.7 279.3 1049.9 280.6C1049.9 280.7 1049.9 280.8 1049.9 280.8C1052.2 292.8 1053.6 304.9 1054.1 317C1054.1 317.8 1054.2 318.6 1054.2 319.4C1054.3 323.2 1054.3 326.8 1054.2 330.4Z" fill="#F7F7F7"/>
<path d="M551.401 259.9C551.401 259.9 579.001 234.5 553.701 210.5C553.701 210.5 553.401 194.5 533.401 194.1C533.401 194.1 531.601 137.4 477.901 127.7C477.901 127.7 467.201 104.2 444.501 107.8C421.801 111.4 415.401 121.7 415.401 121.7C415.401 121.7 418.101 72.2999 388.101 59.9999C358.101 47.6999 340.801 55.5999 340.801 55.5999C340.801 55.5999 321.901 26.2999 295.601 36.7999C269.401 47.2999 252.601 136.8 275.101 146.6C275.101 146.6 271.201 213.6 322.901 223C374.601 232.5 389.501 209.2 389.501 209.2C389.501 209.2 398.301 224.3 415.301 225.3C432.301 226.3 445.801 211.4 445.801 211.4C445.801 211.4 457.701 258.7 481.501 262.5C505.401 266.2 551.401 259.9 551.401 259.9Z" fill="#D1E3F7"/>
<g opacity="0.5">
<path d="M1054.2 330.6C1054.2 332.4 1054.1 334.1 1054.1 335.9C1054.1 336.5 1054.1 337 1054 337.6C1054 338.7 1053.9 339.9 1053.8 341C1052.8 357.8 1050.1 374.2 1045.8 389.3C1042 402.6 1037.1 415 1031 426C1030.2 427.5 1029.3 429 1028.4 430.5C1012.9 456.3 991.301 473.1 965.701 474C965.701 474 724.1 474 488.5 474.1C477.9 474.1 467.301 474.1 456.701 474.1C439.601 474.1 422.6 474.1 405.8 474.1C399.1 474.1 392.4 474.1 385.8 474.1C369.9 474.1 354.3 474.1 338.9 474.1C326.6 474.1 314.601 474.1 302.701 474.1C292.901 474.1 283.3 474.1 273.8 474.1H263.201C256.101 474.1 249.2 474.1 242.4 474.1C153.5 474.1 85.1006 474.1 58.6006 474.1C58.0006 473.7 57.5005 473.3 57.0005 472.8C50.8005 467.8 45.8004 462.2 41.9004 456C39.0004 451.4 36.7006 446.4 35.1006 441.3C33.5006 436.2 32.5006 430.8 32.1006 425.3V425.2C32.1006 424.6 32.0005 424.1 32.0005 423.5C32.0005 422.8 31.9004 422.1 31.9004 421.4C31.9004 420.9 31.9004 420.5 31.9004 420C31.9004 419 31.9005 418 32.0005 417C32.3005 410 33.4004 402.8 35.4004 395.5C36.3004 392.2 37.4006 388.8 38.6006 385.4C39.0006 384.2 39.5005 383 40.0005 381.8C41.5005 378.2 43.1005 374.5 45.0005 370.9C54.8005 351.7 69.8006 332.7 89.1006 315.6C106.001 300.6 121.601 289.9 133.101 277.8L139.8 269.9C141.8 267.2 143.601 264.4 145.201 261.5C151.901 248.8 154.501 233.2 151.101 210.8H161.3V206.1H162.101V210.8H185.101V206.1H185.9V210.8H200.4V206.1H201.201V210.8H207.101V273.4H229.9V263.3L256.8 263.4V247H262.201V243.8H262.9V247H283.601H287.701V243.8H288.4V247H293.4V279.6H325.4V291.6H343.201V284.6H359.701V256.9H367.9V244H369.101V256.9H388.8V232.7H390.701V256.9H403.701V256.6V253.5V250.6V245.8V242.7V237.9V234.8V230V226.7V221.9V217.6V212.8V209.6H407.601V206H408.201V209.6H437V206H437.601V209.6H442.8V234.9H446.5V230.1V226.8V222V218.7V213.9H481.4H487.4C487.7 214 488 214.2 488.3 214.3V241.9H513.8V278.2H534.4V211.2H538.9V206.5H539.701V211.2H556V206.5H556.8V211.2H579.8V206.5H580.601V211.2H595.101V206.5H595.9V211.2H601.9V273.8H624.701V263.7L651.601 263.8V247.4H657V244.2H657.701V247.4H678.4H682.5V244.2H683.201V247.4H688.201V280H720.201V292H738V285H754.5V257.3H762.701V244H763.9V256.9H783.601V232.7H785.5V256.9H798.5V256.6V253.5V250.6V245.8V242.7V237.9V234.8V230V226.7V221.9V217.6V212.8V209.6H802.4V206H803V209.6H831.8V206H832.4V209.6H837.601V234.9H841.3V230.1V226.8V222V218.7V213.9H876.201H882.201C882.501 214 882.801 214.2 883.101 214.3V241.9H925.9V278.2H946.5V211.1H951V206.4H951.8V211.1H968.101V206.4H968.9V211.1H991.9V206.4H992.701V211.1H1014V273.7H1036.8V263.6L1044.9 263.2C1046.3 266.2 1047.6 273.1 1048.5 277.5C1048.9 279.6 1049.2 281.2 1049.3 281.4C1051.7 293.5 1053.1 305.7 1053.6 317.8C1053.6 318.6 1053.7 319.4 1053.7 320.2C1054.3 323.5 1054.3 327.1 1054.2 330.6Z" fill="#D2E5FD"/>
</g>
<path opacity="0.7" d="M858.4 399.7V327C858.4 325.5 843.6 324.4 825.3 324.4C807 324.4 792.201 325.6 792.201 327V399.7L776.9 472.4H870.5L858.4 399.7Z" fill="#D5E7FF"/>
<path d="M784.201 225.3C801.601 247.1 778.901 276.6 778.901 276.6H689.801C689.801 276.6 670.901 273.8 661.801 259.2C652.601 244.7 659.901 233.9 659.901 233.9C641.301 228.2 645.001 208.2 645.001 208.2C645.001 208.2 620.801 218.6 581.401 185.8C542.301 153.2 571.501 113.5 571.901 113C571.601 113.2 554.801 122.4 538.601 113C522.301 103.5 518.901 90.9997 518.901 90.9997C518.901 90.9997 482.101 97.4997 445.801 60.0997C426.801 40.4997 425.001 19.0997 427.601 3.19971C442.601 4.29971 456.601 5.5997 469.601 7.0997C577.901 19.6997 621.501 45.9997 655.001 71.1997C670.901 83.1997 684.601 94.8997 701.801 104.9C702.601 116 701.201 126.1 701.201 126.1C701.201 126.1 719.501 124.9 738.401 135.2C757.401 145.5 754.301 170.4 754.301 170.4C754.301 170.4 772.801 166.2 788.001 186C803.201 205.6 784.201 225.3 784.201 225.3Z" fill="#DFECFD"/>
<g opacity="0.5">
<path d="M143.901 404.9V448.3H133.001V404.9C133.001 392.1 122.601 381.6 109.701 381.6H40.3008C41.8008 378 43.4008 374.3 45.3008 370.7H109.701C128.601 370.7 143.901 386 143.901 404.9Z" fill="#A7C7FF"/>
</g>
<path d="M261.101 473.1H234.801L235.801 418.2L236.601 368L237.601 312.6L238.401 264.5L239.201 216.6H257.801L258.401 264.5L259.001 312.6L259.701 368L260.401 418.2L261.101 473.1Z" fill="#D1E4FA"/>
<path opacity="0.5" d="M258.4 264.5H238.4L239.201 216.6H257.8L258.4 264.5Z" fill="#A7C7FF"/>
<path d="M259.702 368H236.602L237.602 312.6H259.001L259.702 368Z" fill="#C9DDFF"/>
<path d="M261.101 473.1H234.801L235.801 418.2H260.401L261.101 473.1Z" fill="#C9DDFF"/>
<path d="M260.501 229.3H236.102V230.6H260.501V229.3Z" fill="#A7C7FF"/>
<path d="M260.501 349.2H236.102V350.5H260.501V349.2Z" fill="#B8D4FD"/>
<path d="M309.4 473.1H279.9L281 411.6L282 355.4L283 293.3L284 239.4L284.9 185.8H305.601L306.3 239.4L307 293.3L307.8 355.4L308.601 411.6L309.4 473.1Z" fill="#D1E4FA"/>
<path opacity="0.5" d="M306.3 239.4H284L284.9 185.8H305.6L306.3 239.4Z" fill="#A7C7FF"/>
<path opacity="0.5" d="M307.8 355.4H282L283 293.3H307L307.8 355.4Z" fill="#A7C7FF"/>
<path opacity="0.5" d="M309.4 473.1H279.9L281 411.6H308.601L309.4 473.1Z" fill="#A7C7FF"/>
<path d="M308.8 200H281.4V201.4H308.8V200Z" fill="#A7C7FF"/>
<path d="M308.8 334.3H281.4V335.7H308.8V334.3Z" fill="#A7C7FF"/>
<path d="M778.901 374.5V276.6C778.901 274.6 759.001 273.1 734.301 273.1C709.601 273.1 689.702 274.7 689.702 276.6V374.5L669.102 472.4H795.102L778.901 374.5Z" fill="#D1E4FA"/>
<path opacity="0.5" d="M415.401 400.8V329.2C415.401 327.8 397.501 326.6 375.301 326.6C353.101 326.6 335.201 327.8 335.201 329.2V400.8L316.701 472.4H430.001L415.401 400.8Z" fill="#A7C7FF"/>
<path d="M630.801 473.1H594.301L595.601 396L596.801 325.5L598.201 247.7L599.301 180.1L600.501 112.9H626.101L627.001 180.1L627.901 247.7L628.901 325.5L629.801 396L630.801 473.1Z" fill="#D1E4FA"/>
<path d="M627.001 180.1H599.301L600.501 112.9H626.101L627.001 180.1Z" fill="#A7C7FF"/>
<path d="M628.901 325.5H596.801L598.201 247.7H627.901L628.901 325.5Z" fill="#A7C7FF"/>
<path d="M630.801 473.1H594.301L595.601 396H629.801L630.801 473.1Z" fill="#A7C7FF"/>
<path d="M630.001 130.7H596.102V132.5H630.001V130.7Z" fill="#83B4FA"/>
<path d="M630.001 299.1H596.102V300.9H630.001V299.1Z" fill="#83B4FA"/>
<path d="M566.101 366.2V259.9C566.101 257.8 543.501 256 515.601 256C487.701 256 465.101 257.7 465.101 259.9V366.2L441.801 472.5H584.601L566.101 366.2Z" fill="#BBD4F8"/>
<path d="M302.501 444.6L251.301 457.6H194.801H91.1016V444.6H302.501Z" fill="#A7C7FF"/>
<path d="M251.301 472.4V457.6L302.501 444.6L346.701 457.6V472.4H251.301Z" fill="#D5E7FF"/>
<path d="M251.301 457.6H91.1016V472.4H251.301V457.6Z" fill="#C9DDFF"/>
<path d="M111.602 416.7V456.7H101.501V416.7C101.501 404.9 91.9015 395.2 80.0015 395.2H35.6016C36.5016 391.9 37.6013 388.5 38.8013 385.1H80.0015C97.4015 385.2 111.602 399.3 111.602 416.7Z" fill="#A7C7FF"/>
<path d="M152.701 441L101.5 455.7H42.2007C39.3007 451.1 37.0004 446.1 35.4004 441H152.701Z" fill="#8EBDFF"/>
<path d="M101.5 472.4V455.7L152.7 441L196.8 455.7V472.4H101.5Z" fill="#D5E7FF"/>
<path d="M101.501 455.7V472.5H57.2017C51.0017 467.5 46.0016 461.9 42.1016 455.7H101.501Z" fill="#BAD7FF"/>
<path d="M297.701 160C296.201 139.1 284.301 131.9 284.301 131.9C284.301 131.9 288.901 115.3 270.201 107.7C270.201 107.7 277.701 90.9998 269.401 77.2998C259.501 82.4998 247.101 89.9998 234.801 99.5998C231.401 86.4998 227.501 72.0998 226.701 71.9998C226.101 71.8998 209.001 67.5998 189.701 62.7998C181.401 70.0998 173.401 78.1998 166.401 87.1998C158.301 97.5998 151.501 109.2 147.001 121.9C146.701 122.7 146.501 123.4 146.201 124.2C144.401 129.7 143.101 135.4 142.201 141.3C152.001 147.7 163.201 143.4 163.201 143.4C163.201 143.4 164.001 159.6 187.201 161.6C190.701 165.1 197.501 169.7 208.701 168.2C208.701 168.2 207.401 174.8 210.201 180.9C213.001 187 223.501 186.3 223.501 186.3C223.501 186.3 218.601 193.9 228.201 199.3C228.201 199.3 223.601 210.9 239.001 216.5H257.501C257.501 216.5 279.101 204.7 273.601 186.6C273.801 186.7 299.201 180.9 297.701 160Z" fill="#DFECFD"/>
<path d="M323.7 152.3C329.8 172.5 305.6 185.8 305.6 185.8H284.9C267.7 179.5 272.8 166.5 272.8 166.5C262.1 160.4 267.5 152 267.5 152C267.5 152 255.8 152.8 252.6 145.9C249.4 139 250.9 131.6 250.9 131.6C231.5 134.3 223.7 120.3 223.7 120.3C183.8 120.3 166.5 87.2999 166.5 87.2999C195.7 49.7999 241.7 27.2999 256.3 21.1999C270.6 15.1999 286.3 10.6999 302.9 7.3999C306.8 10.5999 304.7 17.3999 304.7 17.3999C334.1 31.8999 319.7 63.7999 319.7 63.7999C340.7 72.2999 335.5 90.8999 335.5 90.8999C335.5 90.8999 348.8 98.9999 350.5 122.4C352.1 145.8 323.7 152.3 323.7 152.3Z" fill="#82F154"/>
<path d="M646.801 73.8999C653.901 97.4999 625.702 112.9 625.702 112.9H601.501C581.401 105.5 587.401 90.3999 587.401 90.3999C574.901 83.2999 581.301 73.3999 581.301 73.3999C581.301 73.3999 567.601 74.2999 563.901 66.2999C560.201 58.2999 561.901 49.5999 561.901 49.5999C539.301 52.6999 530.202 36.3999 530.202 36.3999C498.302 36.3999 478.702 18.2999 469.602 6.8999C577.902 19.4999 621.501 45.7999 655.001 70.9999C650.301 73.0999 646.801 73.8999 646.801 73.8999Z" fill="#82F154"/>
<path d="M178.8 357.7L179 360.4C179 360.4 181.6 365 176.5 367.7C176.5 367.7 174.3 368.7 174 367C173.7 365.4 174.1 366 173.5 363.7C173 361.4 173.7 359.2 175.2 358.4L176.4 356.9L178.8 357.7Z" fill="#FFAE73"/>
<path d="M176.799 360.1C178.899 360.6 179.199 360.4 179.199 360.4C179.199 360.4 187.399 341.5 188.299 339.8C189.099 338.1 207.399 317.7 207.399 317.7L200.499 299.1C200.499 299.1 180.499 330.6 178.499 335C175.099 342.3 174.199 358.7 174.199 358.7C174.199 358.7 175.199 359.7 176.799 360.1Z" fill="#7797EF"/>
<path d="M173.701 360.2C173.701 360.2 173.101 362.3 172.601 362.9C172.101 363.5 171.601 364 172.001 364.3C172.401 364.6 174.201 363.1 174.301 362.8C174.401 362.4 173.701 360.2 173.701 360.2Z" fill="#FFAE73"/>
<path d="M154.701 392.5L184.201 399.4C188.001 400.3 191.9 397.9 192.8 394L195.8 381.2C196.7 377.4 194.3 373.5 190.4 372.6L160.9 365.7C157.1 364.8 153.2 367.2 152.3 371.1L149.3 383.9C148.5 387.8 150.901 391.6 154.701 392.5Z" fill="#234277"/>
<path d="M150.8 391.8L180.2 398.7C184.1 399.6 187.9 397.2 188.8 393.3L191.8 380.4C192.7 376.5 190.3 372.7 186.4 371.8L180.5 370.4L181.1 367.6C181.2 367 181.1 366.3 180.8 365.8C180.5 365.3 179.9 364.9 179.3 364.7L170.5 362.6C169.2 362.3 167.9 363.1 167.6 364.4L167 367.2L156.9 364.8C153 363.9 149.2 366.3 148.3 370.2L145.3 383.1C144.5 387 147 390.9 150.8 391.8ZM179.2 370L168.7 367.5L169.3 364.7C169.4 364.3 169.7 364 170.1 364C170.2 364 170.3 364 170.4 364L179.2 366.1C179.7 366.2 180 366.7 179.9 367.2L179.2 370Z" fill="#234277"/>
<path d="M200.801 298.3C200.801 298.3 207.001 304.4 213.801 301C213.801 301 215.001 297.2 214.801 294.4C214.801 294.1 214.701 293.7 214.701 293.4C214.501 290.3 214.401 288.6 214.401 288.6C214.101 288.5 203.101 285.1 203.201 285.5C204.101 293.8 200.801 298.3 200.801 298.3Z" fill="#FFAE73"/>
<path d="M204.399 287.4C205.599 289.2 209.399 292.6 214.699 293.4C214.499 290.3 214.399 288.6 214.399 288.6C214.099 288.6 204.099 286.9 204.399 287.4Z" fill="#FA934F"/>
<path d="M216.601 288.1C216.601 288.1 205.001 292 202.701 284.7C200.401 277.4 197.301 273.1 204.601 270.3C211.901 267.5 214.201 269.8 215.601 272.1C217.001 274.3 219.501 286.9 216.601 288.1Z" fill="#FFAE73"/>
<path d="M179.6 473.7H172.4C170.9 473.7 169.2 472.2 168.8 469.4C168.4 466.6 165.3 465.1 164.6 462.8C163.9 460.5 167.4 457.3 167.4 457.3L168 456.6L168.6 455.8L174.3 457.1C174.3 457.1 174.4 458.5 174.5 460.2C174.6 461.5 174.6 462.9 174.5 464.2C174.3 467.2 175.3 470.5 178 471.1C180.7 471.8 179.6 473.7 179.6 473.7Z" fill="#314379"/>
<path d="M229.7 473.7H210.6C210.4 473.7 210.3 473.6 210.2 473.6C208.9 473 209.3 468.1 209.5 466.6C209.5 466.3 209.6 466.2 209.6 466.2C209.6 466.2 216.3 460.8 217.2 464.9C217.2 465 217.299 465.2 217.299 465.3C218.499 469.1 223.7 470.9 226.7 471.4C229 471.7 229.6 473.1 229.7 473.7Z" fill="#314379"/>
<path d="M225.901 363.6C225.901 363.6 224.901 376.3 223.701 391.6C222.101 412.4 220.101 437.9 219.901 442.8C219.601 451.2 218.201 464.6 218.201 464.6C218.201 464.6 215.001 467.8 208.601 466.4C208.601 466.4 202.901 447.2 201.301 426.9C201.301 426.6 201.201 426.2 201.201 425.9C199.701 405.2 197.301 361.7 197.301 361.7L225.901 363.6Z" fill="#2A4FA1"/>
<path d="M225.901 363.6C225.901 363.6 224.901 376.3 223.701 391.6L201.301 427C201.301 426.7 201.201 426.3 201.201 426C199.701 405.3 197.301 361.8 197.301 361.8L225.901 363.6Z" fill="#234277"/>
<path d="M221.201 365.1C221.201 365.1 202.801 411.2 190.701 432.9C178.601 454.6 174.801 460.6 174.801 460.6C174.801 460.6 167.901 457.8 167.201 455.9C167.201 455.9 171.801 414.1 179.901 403.9C184.501 398.1 189.901 380.8 190.101 374.8C190.401 368.8 191.701 356.8 191.701 356.8L221.201 365.1Z" fill="#2A4FA1"/>
<path d="M226.5 368.7C226.3 368.9 226.001 369 225.701 369C223.001 368.9 215.1 370.3 208.5 369.4C202.9 368.7 198.001 367 192.701 364.5C192.001 364.2 190.4 363.3 190.4 362.5C190.4 361.6 190.601 360.4 190.701 358.8C191.201 353.3 192.001 343.8 191.601 332.9C191.501 330.9 191.5 328.8 191.5 326.9C191.6 321.7 192 316.8 192.8 312.3C194.3 304.1 198.701 297 202.601 294.2C203.101 293.9 204.5 296.1 207.3 297.5C209.9 298.8 212.1 298.3 214.5 297.8L217.4 300.8C220.4 303.7 223.6 307.5 224.9 313.4C225 313.8 225.101 314.3 225.201 314.8C225.601 317.2 226.001 320.2 226.201 323.6C226.501 327.5 226.7 332 226.8 336.5C226.8 336.8 226.8 337 226.8 337.3C226.8 338.6 226.9 339.9 226.9 341.2C226.9 342.7 226.9 344.2 226.9 345.6C226.9 346.7 226.9 347.8 226.9 348.8V348.9C226.9 349.3 226.9 349.7 226.9 350.1C226.9 351.9 226.9 353.6 226.8 355.2C226.8 363 226.6 368.5 226.5 368.7Z" fill="#9AAFFA"/>
<path d="M226.899 355.3C210.499 348 205.6 321.9 205.6 321.9L227 341.1C227 342.6 227 344.1 227 345.5C227 346.6 227 347.7 227 348.7V348.8C227 349.2 227 349.6 227 350C227 351.9 226.999 353.6 226.899 355.3Z" fill="#7797EF"/>
<path d="M253.7 350.4C254.9 350 257.7 349.3 257.7 349.7C257.7 350 257.4 350.3 257 350.7C258.5 350.7 260 350.8 263 352.5C263.6 352.8 264.1 353.4 264.2 354.1C264.4 354.7 264.3 355.4 263.3 355.6C261.3 356.1 262 355.6 259.2 356.3C256.4 357 253.5 356.4 252.1 354.8L250 353.7L251 349.9C250.9 349.9 252.3 350.1 253.7 350.4Z" fill="#FFAE73"/>
<path d="M252.399 352.3C253.299 350.2 252.299 349.5 252.299 349.5C252.299 349.5 231.8 338.1 230.2 336.9C228.5 335.7 218.299 313.8 218.299 313.8C218.299 313.8 214.499 304.9 209.099 304.7C204.299 304.5 201.499 307.3 199.799 310.4C197.799 314 198.299 318.5 200.899 321.6C206.799 328.7 218.599 342.8 221.799 345C228.799 349.9 250.599 355 250.599 355C250.599 355 251.699 353.9 252.399 352.3Z" fill="#9AAFFA"/>
<path d="M208.999 281.6C208.999 281.6 208.999 284 208.199 286.1C208.199 286.1 210.899 288.5 213.799 288.8C216.699 289.1 218.099 287.7 218.199 286.2C218.299 284.7 217.699 280.1 217.699 280.1C217.699 280.1 216.499 280.7 208.999 281.6Z" fill="#F3F9FF"/>
<path d="M209.001 282.2L204.801 279.4L205.401 279.2L209.001 281.6V282.2Z" fill="#F3F9FF"/>
<path d="M208.201 286.1L203.701 283.4L203.4 282.5L208.5 285.7L208.201 286.1Z" fill="#F3F9FF"/>
<path d="M203.3 286.7C203.1 286.8 200.7 287.8 195 278.7C194.1 277.3 193.3 274 194.8 271C196.3 267.9 202.4 265.1 207.5 263.6C212.6 262.1 214.1 264.9 215.6 267.8C217.2 270.8 221.1 273 221.1 273C216.8 275.9 211.1 272.8 209.3 273.6C207.5 274.4 207.1 277.4 207 278.3C206.9 279.2 206.8 280.1 204.4 279.4C202 278.8 203.6 282.8 204.1 283.6C204 283.6 204.5 285.7 203.3 286.7Z" fill="#C5413C"/>
<path d="M399.5 355.5H398.4V355.4L398.701 352.5C398.701 352.4 398.8 352.3 398.9 352.3C399 352.3 399.001 352.3 399.101 352.4C399.201 352.4 399.201 352.5 399.201 352.6L399.5 355.5Z" fill="#6C9BFA"/>
<path d="M398.5 354.8L398.7 352.4C398.7 352.3 398.8 352.2 398.9 352.2C398.9 352.3 399 352.3 399 352.4V354.1C399.1 354.5 398.8 354.8 398.5 354.8Z" fill="#7DB0FF"/>
<path d="M400.202 368.6H398.102V462.6H400.202V368.6Z" fill="#6C9BFA"/>
<path d="M399.102 368.6H398.102V462.6H399.102V368.6Z" fill="#7DB0FF"/>
<path d="M402.501 447.6H395.701V472.5H402.501V447.6Z" fill="#6C9BFA"/>
<path d="M399.701 447.6H395.701V472.5H399.701V447.6Z" fill="#7DB0FF"/>
<path d="M402.8 356.9C402.8 358.1 401.1 359 398.9 359C398.7 359 398.6 359 398.4 359C396.5 358.9 395 358 395 356.9C395 355.8 396.5 354.9 398.4 354.8C398.6 354.8 398.7 354.8 398.9 354.8C401.1 354.8 402.8 355.7 402.8 356.9Z" fill="#6C9BFA"/>
<path d="M400.8 356.9C400.8 357.8 399.8 358.6 398.4 359C396.5 358.9 395 358 395 356.9C395 355.8 396.5 354.9 398.4 354.8C399.9 355.2 400.8 356 400.8 356.9Z" fill="#7DB0FF"/>
<path d="M402.5 370.4H395.701L393.4 358.9H404.5L402.5 370.4Z" fill="#6C9BFA"/>
<path d="M405.101 358.1H392.701V359.2H405.101V358.1Z" fill="#6C9BFA"/>
<path d="M400.501 358.1H392.701V359.2H400.501V358.1Z" fill="#7DB0FF"/>
<path d="M396.9 447.6H401.201L400.601 445.7C400.501 445.5 400.401 445.4 400.201 445.4H398.201C398.001 445.4 397.801 445.5 397.701 445.7L396.9 447.6Z" fill="#6C9BFA"/>
<path d="M394.201 359.5H403.701L401.801 369.799H396.401L394.201 359.5Z" fill="#89BFFF"/>
<path d="M404.4 358.1H393.5L394.4 356.8H403.5L404.4 358.1Z" fill="#6C9BFA"/>
<path d="M401.7 358.1H393.5L394.4 356.8H400.9L401.7 358.1Z" fill="#7DB0FF"/>
<path d="M412 472.3C412 471.3 411.8 459.8 423.3 454C434.8 448.2 440.5 453.4 452.1 451.5C463.7 449.6 467.7 442.4 480.2 442.6C492.7 442.8 502.4 451.5 518.8 440.7C535.2 429.9 574.4 434.4 582.8 448.1C591.2 461.8 618.3 465.9 636.1 461.2C653.9 456.5 680.2 472.8 680.2 472.8L412 472.3Z" fill="#9AAFFA"/>
<path d="M289.701 450.2H363.901L367.301 432.7H293.201L289.701 450.2Z" fill="#56C124"/>
<path d="M288.402 450.2H362.603L366.103 432.7H292.002L288.402 450.2Z" fill="#82F154"/>
<path d="M342.002 452.3H361.802C363.002 452.3 363.902 451.3 363.902 450.2H342.002V452.3Z" fill="#56C124"/>
<path d="M274.778 452.278H342.178V450.178H274.778V452.278Z" fill="#63D231"/>
<path d="M359.502 452.3L360.802 457.3L364.602 472.1C364.702 472.3 364.802 472.4 365.002 472.4C365.402 472.4 365.702 472.1 365.602 471.7L362.202 454.4L361.802 452.3H359.502Z" fill="#82F154"/>
<path d="M360.703 457.3C360.603 454.7 362.103 454.4 362.103 454.4L361.703 452.3H359.402L360.703 457.3Z" fill="#56C124"/>
<path d="M343.402 452.3L344.703 457.3L348.502 472.1C348.602 472.3 348.702 472.4 348.902 472.4C349.302 472.4 349.602 472.1 349.502 471.7L346.103 454.4L345.703 452.3H343.402Z" fill="#82F154"/>
<path d="M344.601 457.3C344.501 454.7 346.001 454.4 346.001 454.4L345.601 452.3H343.301L344.601 457.3Z" fill="#56C124"/>
<path d="M280.901 452.3L279.601 457.3L275.801 472.1C275.701 472.3 275.601 472.4 275.401 472.4C275.001 472.4 274.701 472.1 274.801 471.7L278.201 454.4L278.601 452.3H280.901Z" fill="#82F154"/>
<path d="M279.601 457.3C279.701 454.7 278.201 454.4 278.201 454.4L278.601 452.3H280.901L279.601 457.3Z" fill="#56C124"/>
<path d="M297.002 452.3L295.702 457.3L291.902 472.1C291.802 472.3 291.702 472.4 291.502 472.4C291.102 472.4 290.802 472.1 290.902 471.7L294.302 454.4L294.702 452.3H297.002Z" fill="#82F154"/>
<path d="M295.701 457.3C295.801 454.7 294.301 454.4 294.301 454.4L294.701 452.3H297.001L295.701 457.3Z" fill="#56C124"/>
<path d="M651.5 339.7C651.5 339.7 651.499 343 650.899 344.6C650.299 346.2 648.399 348.3 647.799 348.3C647.199 348.3 648.4 345 648.1 345.1C647.8 345.2 646.3 350.6 645.2 350.7C644.1 350.8 643.1 344.6 643.7 342.2C644.3 339.8 646.7 336.8 646.7 336.8L651.5 339.7Z" fill="#FFAE73"/>
<path d="M672.9 210.6C672.9 210.6 680.4 209.8 687 214.1C693.7 218.4 693.8 234 699.6 236.6C705.4 239.2 713.9 243.2 713.1 251.2C712.2 259.1 709.5 261.7 713.2 266.4C716.9 271.1 710.5 282.9 699.9 279.4C689.3 275.9 656.1 265 652.8 258.8C649.5 252.6 651.1 245.3 654.4 239.3C657.7 233.2 650.3 212 672.9 210.6Z" fill="#0D3F75"/>
<path d="M661.298 255.5C661.298 255.5 653.598 257.4 651.398 267.2C648.698 279.2 652.799 306.6 650.499 314.7C648.199 322.7 645.398 337.4 645.398 337.4C645.398 337.4 648.599 340 651.999 339.8C651.999 339.8 669.499 314.2 669.599 307.3C669.799 300.4 661.298 255.5 661.298 255.5Z" fill="#9AAFFA"/>
<path d="M719.9 452.1C719.9 452.1 724.5 456.3 723.6 459.3C722.7 462.3 718.5 464.3 718 468C717.4 471.7 715.2 473.7 713.1 473.7C711.1 473.7 703.4 473.7 703.4 473.7C703.4 473.7 701.9 471.1 705.5 470.3C709.1 469.5 710.5 465.2 710.3 461.2C710.1 457.2 710.6 451.9 710.6 451.9L718.3 450.1L719.9 452.1Z" fill="#234277"/>
<path d="M680.699 453.9C680.699 453.9 682.399 471.8 680.299 472.8L654.299 472.7C654.299 472.7 654.299 469.7 658.499 469C662.699 468.3 669.999 465.9 671.299 460.4C672.499 455 680.699 453.9 680.699 453.9Z" fill="#234277"/>
<path d="M653.799 282.9C653.799 282.9 657.399 305.1 655.399 311.2C653.499 317.3 655.999 326.6 655.999 326.6L671.599 301.8L653.799 282.9Z" fill="#7797EF"/>
<path d="M697.101 276.1C697.101 276.1 697.001 283.3 696.701 289.9C696.701 290.3 696.601 290.8 696.601 291.2C696.301 295 696.001 298.4 695.401 299.7C693.801 303.3 692.101 303.9 692.101 303.9L688.8 304.7L688.3 304.8L687.401 305L678.501 307.2L673.701 308.4L658.601 303.9C658.601 303.9 651.701 284.6 654.501 273.8C657.301 263 661.501 255.4 661.501 255.4C661.501 255.4 671.301 252.5 685.401 253.8C685.701 253.8 685.901 253.8 686.201 253.9C687.401 254 688.701 254.2 689.901 254.4L697.101 276.1Z" fill="#9AAFFA"/>
<path d="M696.599 291.3C696.299 295.1 695.999 298.5 695.399 299.8C693.799 303.4 692.099 304 692.099 304L688.799 304.8C688.899 304.6 688.999 304.5 689.099 304.3C692.999 298.6 689.099 286.6 689.099 286.6C689.899 286.7 693.399 289 696.599 291.3Z" fill="#7797EF"/>
<path d="M659.399 306.9C659.399 306.9 651.899 330.3 651.399 338.2C650.899 346.2 665.699 451.2 666.299 454.8C666.899 458.3 671.199 460.5 671.199 460.5C671.199 460.5 673.199 461.7 675.999 460.9C679.899 459.8 681.099 458.5 681.099 458.5C681.099 458.5 686.899 383.6 683.299 356.9C679.699 330.1 679.599 307 679.599 307H659.399V306.9Z" fill="#234277"/>
<path d="M691.199 306.2C691.199 306.2 702.599 321.6 703.699 331.9C704.799 342.3 705.399 378.7 707.599 388.9C709.899 399 718.199 418.5 718.199 450.1C718.199 450.1 717.299 451.9 714.699 452.9C713.799 453.2 712.699 453.5 711.599 453.8C709.399 454.3 707.099 453.2 706.099 451.2C700.499 439.8 682.499 403.2 681.499 395.6C680.799 390.2 675.199 354.6 662.799 333.6C659.799 328.6 664.599 308.6 664.599 308.6L691.199 306.2Z" fill="#2A4FA1"/>
<path d="M658.2 303.3C658.2 303.3 661.2 305.7 667.2 305.8C674.3 305.9 692.1 304 692.1 304C692.1 304 692.9 306.2 692.9 308.5C692.9 308.5 671.3 314 658.7 309.3C658.7 309.3 657 306.3 658.2 303.3Z" fill="#234277"/>
<path d="M665.499 312C663.699 312 662.199 310.3 662.199 308.3C662.199 306.3 663.699 304.6 665.499 304.6C667.299 304.6 668.799 306.3 668.799 308.3C668.799 310.3 667.299 312 665.499 312ZM665.499 305.7C664.299 305.7 663.299 306.9 663.299 308.3C663.299 309.7 664.299 310.9 665.499 310.9C666.699 310.9 667.699 309.7 667.699 308.3C667.699 306.8 666.699 305.7 665.499 305.7Z" fill="white"/>
<path d="M720.358 318.55L687.691 330.549L694.415 348.853L727.082 336.855L720.358 318.55Z" fill="#63D231"/>
<path d="M687.898 330.7C687.898 330.7 698.399 337.3 708.499 333.1C718.599 328.9 720.599 318.7 720.599 318.7L687.898 330.7Z" fill="#82F154"/>
<path d="M692.699 330.7C691.699 330.8 690.699 330.1 690.599 329.1C690.499 328.1 691.199 327.1 692.199 327C693.199 326.9 694.199 327.6 694.299 328.6C694.499 329.6 693.699 330.5 692.699 330.7ZM692.299 327.6C691.599 327.7 691.099 328.3 691.199 329C691.299 329.7 691.899 330.2 692.599 330.1C693.299 330 693.799 329.4 693.699 328.7C693.599 327.9 692.999 327.5 692.299 327.6Z" fill="#052E56"/>
<path d="M692.599 327.2L691.7 327.4C691.7 327.2 689.599 317 687.399 305.1C685.799 296.3 684.199 286.6 683.299 279.3C682.199 270.2 682.699 263.6 683.299 259.7C683.799 256.6 684.699 254.8 685.299 253.9C685.599 253.9 685.799 253.9 686.099 254C685.299 256.1 682.499 264.5 684.299 279.2C685.199 286.5 686.799 296.2 688.399 304.9C690.399 316.9 692.499 327.1 692.599 327.2Z" fill="#052E56"/>
<path d="M715.199 335.9C715.199 335.9 715.199 338.8 715.799 340.2C716.299 341.6 717.999 343.4 718.499 343.4C718.999 343.4 717.999 340.5 718.299 340.6C718.599 340.7 719.899 345.4 720.799 345.5C721.799 345.6 722.599 340.2 722.099 338C721.599 335.9 719.399 333.3 719.399 333.3L715.199 335.9Z" fill="#FFAE73"/>
<path d="M689.8 254.5C689.8 254.5 698.8 255.7 703.5 265C707.2 272.2 709.7 294.9 712.3 302.1C714.8 308.9 718.201 322.2 720.101 332.8C720.201 333.6 719.8 334.4 719 334.7L715.8 336C715.1 336.3 714.3 336 713.9 335.4C711 330.6 699.701 311.2 695.701 300C694.201 295.7 692.3 292 690.4 288.9C685.8 281.4 684.501 272.3 687.101 263.8L689.8 254.5Z" fill="#9AAFFA"/>
<path d="M680.898 256.3C682.498 255.1 682.198 253.7 681.398 251.6C680.498 249 679.798 245.3 679.798 240.6L679.098 240.7L667.598 243C667.598 243 667.898 246.6 667.898 250V250.1C667.898 253.1 667.798 253.8 667.398 256.7C666.798 260.1 677.998 258.5 680.898 256.3Z" fill="#FFAE73"/>
<path d="M667.6 243C667.6 243 667.899 246.6 667.899 250C674.399 249.8 677.8 243.9 679.2 240.7L667.6 243Z" fill="#F7914F"/>
<path d="M665.399 246.3C665.399 246.3 680.7 246.6 680.7 237C680.7 227.5 682.699 221.1 672.899 220.5C663.099 219.9 661.299 223.6 660.499 226.7C659.799 230 661.499 246 665.399 246.3Z" fill="#FFAE73"/>
<path d="M666.999 221.2C666.999 221.2 663.899 222.4 662.599 224.6C661.399 226.8 660.299 229.7 660.499 233.3C660.499 233.3 657.399 225.7 660.899 221.4C664.699 217 666.999 221.2 666.999 221.2Z" fill="#0D3F75"/>
<path d="M677.499 241.5C677.499 241.5 673.899 245.3 668.999 246.5C665.199 247.4 663.599 246.2 662.499 244.3C662.299 244 662.099 243.6 661.899 243.2C661.799 243 661.699 242.7 661.599 242.5C661.399 242 661.199 241.3 661.199 240.6C661.199 240.2 661.099 239.9 661.099 239.5C660.999 238.1 661.099 236.9 661.099 236.9C661.099 236.9 665.599 237.2 674.499 234.9C674.499 234.9 674.699 235.5 674.999 236.4C674.999 236.5 675.099 236.7 675.199 236.9C675.299 237.1 675.299 237.2 675.399 237.4C675.599 237.9 675.899 238.5 676.099 239.1C676.299 239.4 676.399 239.7 676.599 240C676.799 240.5 677.199 241.1 677.499 241.5Z" fill="#DFECFD"/>
<path d="M677.5 241.5L677.1 241.2C677.1 241.1 680.3 235.6 680.6 234.8L680.7 234.6C680.9 233.9 681.4 232.4 681 231.6C680.9 231.3 680.6 231.2 680.3 231.1C678.9 230.7 675.6 234.2 674.4 235.5L674 235.2C674.5 234.7 678.5 230.1 680.4 230.6C680.9 230.7 681.2 231 681.4 231.4C681.9 232.4 681.4 234 681.1 234.8L681 235C680.7 235.8 677.6 241.3 677.5 241.5Z" fill="#DFECFD"/>
<path d="M666 220.3C666 220.3 670.2 231.5 676.6 233.1C683 234.8 685.8 233 685.8 233C685.8 233 680.9 229.1 679.9 222.3C679.9 222.3 669.2 215 666 220.3Z" fill="#0D3F75"/>
<path d="M675.3 237.4C671.2 239.6 667.1 240.7 663.2 240.7C662.5 240.7 661.8 240.7 661.1 240.6C661.1 240.2 661 239.9 661 239.5C665.5 240 670.1 239 674.8 236.4H674.9C674.9 236.5 675 236.7 675.1 236.9C675.2 237 675.3 237.2 675.3 237.4Z" fill="#CEE1F6"/>
<path d="M676.499 240C672.199 242.9 667.899 244.3 663.699 244.3C663.299 244.3 662.799 244.3 662.399 244.3C662.199 244 661.999 243.6 661.799 243.2C666.299 243.7 671.099 242.4 675.899 239.1C675.899 239.1 675.899 239.1 675.999 239.1C676.199 239.4 676.399 239.7 676.499 240Z" fill="#CEE1F6"/>
<path d="M378.401 240C379.701 243.4 381.901 247.4 384.201 248.3C386.801 249.4 387.901 251 387.901 251L390.001 249.8L392.501 248.3C392.501 248.3 392.401 248 392.301 247.6C392.201 247.1 392.001 246.5 391.701 245.8C391.701 245.8 390.901 244.8 391.401 243.6C391.901 242.4 391.801 240.4 391.001 239.3C390.201 238.1 389.401 235.2 388.901 235.3C387.701 235.5 389.501 239.5 389.001 240.2C388.501 240.9 388.001 240.6 387.901 240.6C384.601 239.2 380.501 231.3 378.801 232.4C378.201 232.7 377.901 238.5 378.401 240Z" fill="#FFAE73"/>
<path d="M389.9 244.7L385.7 247.6C385.4 247.8 385 247.7 384.8 247.4L374.1 232.3C373.9 232 374 231.6 374.3 231.4L378.5 228.5C378.8 228.3 379.2 228.4 379.4 228.7L390.1 243.8C390.3 244.1 390.2 244.5 389.9 244.7Z" fill="#2A4FA1"/>
<path d="M386.101 247.399L383.701 249.099C383.501 249.299 383.201 249.199 383.001 248.999L372.201 233.699C372.001 233.499 372.101 233.199 372.301 232.999L374.701 231.299C374.901 231.099 375.201 231.199 375.401 231.399L386.201 246.699C386.401 246.899 386.401 247.199 386.101 247.399Z" fill="#234277"/>
<path d="M449.501 223C449.501 223 428.401 259.8 420.801 266.5L392.601 245.6C392.601 245.6 388.501 246.9 386.701 250.9C386.701 250.9 403.801 285.5 420.601 287C437.401 288.4 461.001 245.4 461.001 245.4L449.501 223Z" fill="#82F154"/>
<path d="M497.701 472.8H509.901C511.401 472 512.801 470.1 513.201 467.2C513.801 463.3 518.201 461.1 519.101 457.9C520.001 454.7 515.201 450.2 515.201 450.2L514.401 449.2L513.501 448.1L505.401 450C505.401 450 505.201 451.9 505.101 454.4C505.001 456.2 505.001 458.2 505.101 460C505.301 464.3 503.901 468.9 500.101 469.7C497.301 470.3 497.401 472 497.701 472.8Z" fill="#234277"/>
<path d="M426.801 472.9H454.701C456.001 471.3 455.501 465.2 455.301 463.3C455.301 462.9 455.201 462.7 455.201 462.7C455.201 462.7 445.701 455.1 444.301 460.9C444.301 461.1 444.201 461.3 444.201 461.4C442.601 466.8 435.201 469.3 430.901 470C428.201 470.5 427.201 471.9 426.801 472.9Z" fill="#234277"/>
<path d="M431.9 317.5C431.9 317.5 433.401 335.5 435.101 357.2C437.501 386.6 440.301 422.7 440.601 429.6C441.101 441.5 443 460.5 443 460.5C443 460.5 447.501 465 456.601 463.1C456.601 463.1 464.6 436 466.9 407.2C466.9 406.7 467 406.3 467 405.8C469.1 376.6 472.4 315 472.4 315L431.9 317.5Z" fill="#2A4FA1"/>
<path d="M431.9 317.5C431.9 317.5 433.401 335.5 435.101 357.2L466.9 407.2C466.9 406.7 467 406.3 467 405.8C469.1 376.6 472.4 315 472.4 315L431.9 317.5Z" fill="#234277"/>
<path d="M438.5 319.7C438.5 319.7 464.7 384.9 481.9 415.5C499.1 446.1 504.5 454.7 504.5 454.7C504.5 454.7 514.3 450.8 515.2 448.1C515.2 448.1 508.6 388.9 497 374.5C490.5 366.4 482.8 341.9 482.5 333.4C482.2 324.9 480.1 307.9 480.1 307.9L438.5 319.7Z" fill="#2A4FA1"/>
<path d="M444.9 224.6C455.1 227.8 472.701 219.1 472.701 219.1C472.701 219.1 463.3 212.1 463.8 197.4L455.9 203.7L450.5 208C450.5 208 450.501 210.5 451.101 215C451.301 216.2 451.501 217.5 451.701 218.9C447.401 221.4 444.9 224.6 444.9 224.6Z" fill="#FFAE73"/>
<path d="M450.602 208.1C450.602 208.1 450.602 210.6 451.202 215.1C457.102 214.1 463.901 204.5 463.901 204.5C460.901 203.6 458.201 203.5 456.001 203.8L450.602 208.1Z" fill="#FA934F"/>
<path d="M447.401 207.8C447.401 207.8 464.301 210.6 465.801 200.1C467.301 189.6 470.601 182.9 459.901 180.7C449.201 178.5 446.501 182.2 445.101 185.6C443.701 189 443.101 206.9 447.401 207.8Z" fill="#FFAE73"/>
<path d="M430.8 319C431.1 319.3 431.5 319.4 431.9 319.4C435.7 319.3 446.9 321.4 456.4 320.5C464.4 319.7 471.401 317.4 479.001 314C480.001 313.5 482.3 312.3 482.3 311.2C482.3 310 482.101 308.2 482.001 306C481.501 298.2 480.5 284.8 481.4 269.3C481.6 266.4 481.601 263.6 481.601 260.8C481.601 239.8 477.501 221.4 469.101 215.2C468.401 214.7 464.001 216.8 460.001 218.8C456.301 220.6 452.501 220.8 449.001 220.1L445.501 223.2C441.201 227.2 436.501 232.6 434.501 240.8C432.801 247.8 431.801 260.4 431.201 273.4C431.001 279.3 430.801 285.3 430.701 290.9V291.1C430.701 291.7 430.701 292.3 430.701 292.8C430.301 307.3 430.5 318.8 430.8 319Z" fill="#AEFF8C"/>
<path d="M481.8 305.9C481.3 298.1 480.301 284.7 481.201 269.2C481.401 266.3 481.4 263.5 481.4 260.7C477.9 252.3 475 246.2 475 246.2H466.201C466.301 246.2 459.9 290.1 481.8 305.9Z" fill="#82F154"/>
<path d="M527.001 355.6L489.501 361C484.601 361.7 480.101 358.3 479.401 353.4L477.101 337.2C476.401 332.3 479.801 327.8 484.701 327.1L522.201 321.7C527.101 321 531.601 324.4 532.301 329.3L534.601 345.5C535.301 350.3 531.901 354.9 527.001 355.6Z" fill="#123461"/>
<path d="M481.901 336.5L484.301 352.9C484.801 356.1 486.901 358.6 489.601 359.8C490.501 360.2 491.501 360.5 492.501 360.5C493.101 360.5 493.801 360.5 494.501 360.4L531.901 355C536.801 354.3 540.201 349.7 539.501 344.8L537.101 328.4C536.401 323.5 531.801 320.1 526.901 320.8L514.001 322.6L513.501 319.1C513.301 317.5 511.801 316.4 510.101 316.6L508.701 316.8L500.901 317.9L499.001 318.2C498.201 318.3 497.501 318.7 497.001 319.4C496.501 320 496.301 320.8 496.401 321.6L496.901 325.1L489.401 326.2C489.101 326.2 488.801 326.3 488.501 326.4C485.601 327.1 483.301 329.2 482.301 331.8C481.901 333.3 481.701 334.9 481.901 336.5ZM512.301 323.1L498.901 325L498.401 321.5C498.301 320.9 498.701 320.3 499.301 320.3L502.701 319.8L508.901 318.9L510.601 318.7C510.701 318.7 510.801 318.7 510.901 318.7C511.401 318.8 511.801 319.1 511.801 319.6L512.301 323.1Z" fill="#234277"/>
<path d="M498.4 307.4C498.4 307.4 500.4 310 500.5 311.1C501 318.2 497.801 319.2 506.201 323.1C506.201 323.1 509.8 324.5 509.8 321.7C509.9 318.9 507.3 318.9 507.8 315C508.3 310.5 508.3 310.5 505.3 308.1L503.3 304.9L498.4 307.4Z" fill="#FFAE73"/>
<path d="M503.401 309.4C500.201 310 496.801 309.8 496.801 309.8C496.801 309.8 487.402 280.9 486.102 278.2C484.902 275.6 458.102 244.3 458.102 244.3L469.202 216.5C469.202 216.5 498.202 264.6 501.102 271.3C506.002 282.5 507.702 307.5 507.702 307.5C507.702 307.5 505.901 308.9 503.401 309.4Z" fill="#AEFF8C"/>
<path d="M465.901 199.1C465.901 199.1 464.201 198.8 464.401 196.4C464.701 194 464.701 190.9 462.701 191.5C460.801 192.1 460.701 193.6 459.901 192.7C459.101 191.8 459.101 188 453.301 187.7C447.501 187.4 445.201 189.4 442.501 188.3C439.801 187.1 439.701 183.1 439.701 183.1C439.701 183.1 440.501 184.5 441.601 185C441.601 185 437.101 178.9 442.301 174.7C447.501 170.5 452.801 173.2 455.701 173.4C462.301 173.8 466.601 174.2 468.701 178.5C471.001 183 470.101 195 465.901 199.1Z" fill="#2A4FA1"/>
<path d="M501.502 310.5C501.502 310.5 499.602 312.5 499.502 313.3C499.102 315.9 498.202 317.1 498.702 317.4C499.602 318 500.802 316 501.402 314.3C502.002 312.5 501.502 310.5 501.502 310.5Z" fill="#FFAE73"/>
<path d="M460.401 203.1C460.401 203.1 456.501 207.2 451.501 208.3C447.601 209.1 446.001 207.7 444.901 205.5C444.701 205.1 444.601 204.7 444.401 204.2C444.301 203.9 444.201 203.7 444.101 203.4C443.901 202.8 443.801 202 443.801 201.3C443.801 200.9 443.801 200.5 443.801 200.1C443.801 198.5 444.001 197.1 444.001 197.1C444.001 197.1 448.601 197.7 457.701 195.5C457.701 195.5 457.901 196.2 458.201 197.2C458.201 197.4 458.301 197.5 458.301 197.7C458.401 197.9 458.401 198.1 458.501 198.3C458.701 198.9 458.901 199.6 459.201 200.2C459.301 200.6 459.501 200.9 459.601 201.3C459.801 201.9 460.101 202.5 460.401 203.1Z" fill="#F3F9FF"/>
<path d="M460.401 203.1L460.001 202.7C460.001 202.6 463.601 196.6 463.901 195.7L464.001 195.5C464.301 194.7 464.901 193.1 464.501 192.1C464.401 191.8 464.201 191.6 463.801 191.5C462.401 191 458.801 194.7 457.501 196.2L457.102 195.8C457.602 195.2 462.001 190.3 463.901 191C464.401 191.2 464.701 191.5 464.901 191.9C465.401 193.1 464.701 194.8 464.401 195.7L464.301 195.9C464.001 196.8 460.501 202.8 460.401 203.1Z" fill="#F3F9FF"/>
<path d="M458.401 198.3C454.101 200.6 449.901 201.6 445.901 201.4C445.201 201.4 444.501 201.3 443.801 201.2C443.801 200.8 443.801 200.4 443.801 200C448.301 200.8 453.101 199.9 458.101 197.2H458.201C458.201 197.4 458.301 197.5 458.301 197.7C458.301 197.9 458.401 198.1 458.401 198.3Z" fill="#CEE1F6"/>
<path d="M459.501 201.3C454.901 204.3 450.501 205.7 446.201 205.5C445.701 205.5 445.301 205.4 444.801 205.4C444.601 205 444.501 204.6 444.301 204.1C448.901 204.9 453.801 203.6 458.901 200.3C458.901 200.3 458.901 200.3 459.001 200.3C459.201 200.6 459.401 201 459.501 201.3Z" fill="#CEE1F6"/>
<path d="M460.4 193.2C460.4 193.2 462.7 190.1 464 190.5C465.3 190.9 466.1 193.9 463.9 195.7C461.7 197.5 460.4 193.2 460.4 193.2Z" fill="#FFAE73"/>
<path d="M1047.3 384.2C1034.6 434.4 1005.3 472.3 967 473.6C967 473.6 966.6 473.6 965.8 473.6C965.8 473.6 872.701 473.6 745.701 473.6C742.901 472.8 741.4 472.4 741.4 472.4C741.4 472.4 751.7 456.7 784.4 454.6C817.1 452.5 860.7 465.1 876.8 461.1C892.8 457.1 912.3 444.8 943.8 445.3C975.3 445.8 974.701 382 1040.2 383.6C1042.6 383.7 1045 383.9 1047.3 384.2Z" fill="#C5D8FD"/>
<path d="M765.301 193.4H762.701V193.2L763.501 186.2C763.501 186 763.701 185.8 763.901 185.8H764.001C764.101 185.8 764.301 185.9 764.401 186C764.501 186.1 764.601 186.3 764.601 186.5L765.301 193.4Z" fill="#6C9BFA"/>
<path d="M762.902 191.8L763.502 186.2C763.502 186 763.702 185.8 763.902 185.8H764.002C764.002 185.8 764.003 185.8 764.103 185.9C764.203 186 764.302 186.2 764.302 186.4V190.5C764.302 191.1 763.702 191.8 762.902 191.8Z" fill="#7DB0FF"/>
<path d="M767.002 224.6H761.902V448.8H767.002V224.6Z" fill="#6C9BFA"/>
<path d="M764.203 224.6H761.902V448.8H764.203V224.6Z" fill="#7DB0FF"/>
<path d="M772.501 413.1H756.301V472.4H772.501V413.1Z" fill="#6C9BFA"/>
<path d="M765.901 413.1H756.301V472.4H765.901V413.1Z" fill="#7DB0FF"/>
<path d="M773.202 196.8C773.202 199.6 769.001 201.8 763.901 201.8C763.501 201.8 763.102 201.8 762.702 201.8C758.102 201.5 754.602 199.4 754.602 196.8C754.602 194.2 758.202 192.1 762.702 191.8C763.102 191.8 763.501 191.8 763.901 191.8C769.101 191.8 773.202 194 773.202 196.8Z" fill="#6C9BFA"/>
<path d="M768.401 196.8C768.401 199 766.101 201 762.801 201.8C758.201 201.5 754.701 199.4 754.701 196.8C754.701 194.2 758.301 192.1 762.801 191.8C766.101 192.6 768.401 194.5 768.401 196.8Z" fill="#7DB0FF"/>
<path d="M772.501 229.1H756.301L750.602 201.6H777.301L772.501 229.1Z" fill="#6C9BFA"/>
<path d="M778.702 199.5H749.102V202.1H778.702V199.5Z" fill="#6C9BFA"/>
<path d="M767.702 199.5H749.102V202.1H767.702V199.5Z" fill="#7DB0FF"/>
<path d="M759.002 413.1H769.302L767.802 408.5C767.702 408.1 767.302 407.8 766.902 407.8H762.102C761.602 407.8 761.102 408.1 760.902 408.6L759.002 413.1Z" fill="#6C9BFA"/>
<path d="M752.502 202.9H775.302L770.902 227.6H757.802L752.502 202.9Z" fill="#89BFFF"/>
<path d="M776.802 199.5H751.002L753.102 196.5H774.802L776.802 199.5Z" fill="#6C9BFA"/>
<path d="M770.502 199.5H751.002L753.102 196.5H768.502L770.502 199.5Z" fill="#7DB0FF"/>
<path d="M966.602 389.3H1045.9C1042.1 402.6 1037.2 415 1031.1 426H959.102L966.602 389.3Z" fill="#E76A00"/>
<path d="M1045.9 389.3C1042.1 402.6 1037.2 415 1031.1 426H956.5L964 389.3H1045.9Z" fill="#82F154"/>
<path d="M1031.1 425.9C1030.3 427.4 1029.4 428.9 1028.5 430.4H927.701V425.9H1031.1Z" fill="#56C124"/>
<path d="M940.702 430.4L938.002 440.9L930.102 472C930.002 472.4 929.602 472.7 929.202 472.7C928.402 472.7 927.802 472 927.902 471.2L935.002 434.9L935.902 430.4H940.702Z" fill="#82F154"/>
<path d="M938 440.9C938.3 435.5 935 434.9 935 434.9L935.9 430.4H940.7L938 440.9Z" fill="#63D231"/>
<path d="M974.5 430.4L971.8 440.9L963.9 472C963.8 472.4 963.4 472.7 963 472.7C962.2 472.7 961.6 472 961.7 471.2L968.8 434.9L969.7 430.4H974.5Z" fill="#82F154"/>
<path d="M971.801 440.9C972.101 435.5 968.801 434.9 968.801 434.9L969.701 430.4H974.501L971.801 440.9Z" fill="#63D231"/>
<path d="M851.499 460.1L847.799 458.6C847.799 458.6 847.599 448.2 850.099 435.9C851.599 428.1 854.099 419.7 858.099 413C859.899 410 861.999 407.4 864.499 405.3C864.499 405.3 867.799 398.7 872.299 389.8C877.199 379.9 904.399 378.6 887.699 398.9C884.299 403.1 880.399 410.5 876.099 414.9C868.699 422.4 863.199 431.4 859.399 439.4C853.699 450.8 851.499 460.1 851.499 460.1Z" fill="#FFAE73"/>
<path d="M842.699 460.1C841.399 461.9 843.799 463.9 846.799 465.8C849.799 467.7 848.499 467.8 852.299 471C856.099 474.2 858.399 474 859.099 473.6C859.699 473.3 858.199 471.3 856.599 469.2C856.399 468.9 856.199 468.7 855.999 468.4C854.199 466 854.099 463.2 853.399 460.1C852.699 457.3 854.499 450.4 854.499 450.4L849.499 445.9C849.499 445.9 848.099 452.2 847.299 454.8C846.899 456.3 845.499 457.5 844.399 458.4C843.799 459 843.199 459.5 842.699 460.1Z" fill="#FFAE73"/>
<path d="M846.8 465.8C849.8 467.7 848.5 467.8 852.3 471C856.1 474.2 858.4 474 859.1 473.6C859.7 473.3 858.2 471.3 856.6 469.2H856.5C856.5 469.2 853 468.5 850.1 465.6C847.7 463.2 846 460 844.4 458.4C843.8 458.9 843.2 459.4 842.8 460C841.5 461.9 843.9 463.9 846.8 465.8Z" fill="#0F4EA0"/>
<path d="M877.4 263.2C877.4 263.2 868.001 262.4 863.601 271.2C859.201 280 859.901 292.6 855.601 298.7C851.201 304.8 856.701 310.2 856.701 310.2L892.201 310.3C892.201 310.3 894.5 303.6 891.8 295.7C889 287.8 900.3 263.7 877.4 263.2Z" fill="#234277"/>
<path d="M910.599 367.6C910.299 369 909.199 372.2 908.299 372.2C907.499 372.2 907.199 368.4 906.199 367.6C904.799 366.5 903.499 364 903.299 363.4C902.899 362.2 902.499 361.9 902.499 361.9C902.499 361.9 890.699 341.8 889.599 336.6C889.299 334.9 888.399 331.5 887.399 327.7C886.299 323.6 885.099 318.9 884.199 315.5C887.799 314.7 891.699 314.3 894.899 314.2C895.699 318.4 896.399 322.7 896.999 326.5C897.899 332.1 898.599 336.4 898.999 337.3C900.099 339.8 903.199 353.5 905.899 360.6C906.199 361.3 907.099 363.1 907.999 363.7C909.299 364.4 910.899 366.2 910.599 367.6Z" fill="#F7914F"/>
<path d="M889.699 348C882.899 328.4 895.399 328.3 894.399 318.4C893.499 308.5 885.499 298.1 885.499 298.1C885.499 298.1 885.199 298.1 884.699 298.1C884.399 298.1 884.199 297.9 884.099 297.7C883.799 296.9 883.699 295.2 883.599 293.4C883.499 290.7 883.599 287.8 883.599 287.8L874.399 286.3L873.899 286.2C874.099 290.8 873.299 294.3 872.399 296.3C871.999 297.2 871.099 297.9 870.099 298.1C868.099 298.4 864.699 299.1 862.399 300.2C861.299 300.7 860.399 301.3 860.099 302C857.699 307.6 855.699 321.7 854.199 331.8C853.399 337.4 852.799 341.7 852.399 342.7C851.399 345.3 848.499 359.5 845.799 366.5L849.499 367.5C849.499 367.5 860.899 347.1 861.899 341.9C862.199 340.2 862.999 336.8 863.899 333C863.999 332.4 864.199 331.8 864.299 331.2C866.299 336 867.199 338.3 867.299 340.4C867.299 343.4 865.399 346.2 861.399 355.9C859.099 361 896.599 368 889.699 348Z" fill="#FFAE73"/>
<path d="M883.7 287.8C883.7 287.8 883.6 290.7 883.7 293.4C878.6 293.4 875.7 288.8 874.5 286.2L883.7 287.8Z" fill="#F7914F"/>
<path d="M885.5 290.3C885.5 290.3 873.3 290.9 873.1 283.3C872.9 275.7 871.1 270.7 878.9 270C886.7 269.3 888.3 272.2 889 274.7C889.6 277.2 888.6 290 885.5 290.3Z" fill="#FFAE73"/>
<path d="M902.399 465.7L898.499 466.6C898.499 466.6 892.499 458.1 887.699 446.5C884.599 439.2 881.999 430.8 881.599 423.1C881.399 419.6 881.699 416.2 882.599 413.2C882.599 413.2 881.699 405.8 880.399 396C878.999 385.1 877.099 371.1 875.699 360.8L876.699 360.5L893.499 351.2C893.499 351.2 900.699 368.8 898.199 394.9C897.699 400.3 898.599 408.6 897.499 414.7C895.499 425.1 895.999 435.6 897.299 444.4C898.999 456.7 902.399 465.7 902.399 465.7Z" fill="#FFAE73"/>
<path d="M846 365.7C846 365.7 845 368.4 843.8 369.1C842.7 369.9 841.1 371.7 841.4 373.1C841.7 374.5 842.1 376.7 843.6 376.6C845.1 376.6 848.3 370 848.7 368.8C849.1 367.6 849.4 367.3 849.4 367.3L846 365.7Z" fill="#FFAE73"/>
<path d="M905.1 421.4C890.7 430.2 851.6 418.1 851.6 417.3C851.7 413.2 854.599 388.3 858.299 364.6C860.499 350 867.499 344.4 866.299 343.5C861.799 340.5 863.499 335.1 863.799 333.2C862.499 333.6 858.1 334.6 853 332C854.7 321.9 857.2 307.7 860 302C860.1 301.7 860.4 301.5 860.7 301.2C863.4 299.1 869 298.3 869 298.3C869 298.3 872.3 305.6 873.2 306.8C879.4 314.1 890.1 310.4 888.5 305.8C887.9 304.1 885 298.9 884.7 298.3L885.5 298.4C887.3 298.6 888.6 298.7 889.5 298.9C891.3 299.2 891.8 299.4 892.2 299.7C893.8 301.2 895.999 305.1 896.399 312.1C896.499 314.7 900.199 343.5 891.299 343.3C891.099 343.3 891.3 343.8 891.7 344.6C893 347.4 896.8 354.5 898.1 363.7C902.4 393.2 905.1 421.4 905.1 421.4Z" fill="#AEFF8C"/>
<path d="M848.7 368.8C848.7 368.8 848.4 371.8 847.6 372.5C846.8 373.2 846.8 374.4 846 373.8C845.2 373.1 848.7 368.8 848.7 368.8Z" fill="#FFAE73"/>
<path d="M896.299 472.1C896.599 474.3 899.7 474.1 903.2 473.4C906.7 472.7 905.8 473.7 910.7 473.4C915.6 473.1 917.199 471.3 917.399 470.6C917.599 470 915.2 469.6 912.6 469.2C912.3 469.1 911.9 469.1 911.6 469C908.7 468.5 906.6 466.5 904 464.8C901.5 463.2 899.5 456.5 899.5 456.5L892.6 457.1C892.6 457.1 895.6 462.3 896.2 465C896.6 466.5 896.4 468.4 896.2 469.8C896.3 470.5 896.199 471.3 896.299 472.1Z" fill="#FFAE73"/>
<path d="M903.2 473.4C906.7 472.7 905.8 473.7 910.7 473.4C915.6 473.1 917.199 471.3 917.399 470.6C917.599 470 915.2 469.6 912.6 469.2C912.6 469.2 909.599 471.1 905.499 471C902.199 470.9 898.699 469.8 896.399 469.7C896.299 470.5 896.199 471.2 896.299 472C896.599 474.3 899.7 474.1 903.2 473.4Z" fill="#0F4EA0"/>
<path d="M905.1 421.4C890.7 430.2 851.6 418.1 851.6 417.3C851.7 413.2 854.599 388.3 858.299 364.6C860.499 350 867.499 344.4 866.299 343.5C866.599 343.7 870.799 346.9 878.399 346.2C885.199 345.6 890.4 344.6 891.7 344.3C893 347.1 896.8 354.2 898.1 363.4C902.4 393.2 905.1 421.4 905.1 421.4Z" fill="#2A4FA1"/>
<path d="M866.299 343.5C866.299 343.5 878.499 348.1 891.299 343L891.999 345C891.999 345 878.799 350 865.799 345.2L866.299 343.5Z" fill="#0D3F75"/>
<path d="M888.799 284.2C888.799 284.5 888.799 284.8 888.699 285.1C888.599 285.9 888.499 286.7 888.299 287.5C888.199 287.8 888.099 288.1 887.999 288.4C887.599 289.5 886.999 290.4 885.999 290.8C882.799 291.8 876.899 288.8 875.299 285.4L875.499 285L875.799 284.1L876.099 283.3L876.399 282.5L876.599 281.9C876.599 281.9 884.999 283.3 888.699 282.3C888.799 282.2 888.799 283 888.799 284.2Z" fill="#F3F9FF"/>
<path d="M875.399 285.4C875.099 285 871.9 281 872.2 279.7C872.3 279.5 872.399 279.3 872.599 279.3C873.999 278.6 876.4 281.6 876.7 281.9L876.499 282.3C875.799 281.5 873.799 279.2 872.799 279.6C872.699 279.6 872.699 279.7 872.599 279.8C872.399 280.8 874.699 283.8 875.599 285L875.399 285.4Z" fill="#F3F9FF"/>
<path d="M888.398 270.5C886.498 268.3 884.998 268.8 884.298 269.5C877.698 266.1 873.398 271.6 873.398 271.6C872.798 277.1 868.898 280.3 868.898 280.3C868.898 280.3 871.099 281.4 876.199 280.1C882.299 278.6 883.799 271.7 883.999 270.7C884.799 271.3 886.298 272.7 886.798 274.2C887.498 276.1 887.899 280.1 888.999 279.9C888.999 279.9 891.298 273.8 888.398 270.5Z" fill="#234277"/>
<path d="M826.3 371.3C826.3 371.3 836.6 393.1 835.4 394.7C834.1 396.3 825.3 388.8 823.4 383.6C821.4 378.6 826.3 371.3 826.3 371.3Z" fill="#FFAE73"/>
<path d="M840.6 376.2C840.6 376.2 834.4 385.5 831.6 389.7C830.1 392 834 395 835.3 394.8C836.6 394.6 841.7 380 841.7 380L840.6 376.2Z" fill="#FFAE73"/>
<path d="M807.499 376.6C807.499 376.6 799.299 372.9 793.099 376.1C786.899 379.4 790.699 406.3 799.599 408.9C799.499 408.9 816.099 414.2 807.499 376.6Z" fill="#3850A1"/>
<path d="M835.3 465.8C835.3 465.8 836.6 467.3 838.7 467.3C840 467.3 841.2 467.7 842 468.4C842.8 469 842.5 470.3 841.5 470.5L831.7 472.7C830.8 472.9 829.8 472.3 829.7 471.3C829.6 470.6 829.5 469.8 829.4 469.2C829.1 467.7 830.3 466.2 830.3 466.2L835.3 465.8Z" fill="#314379"/>
<path d="M835.3 465.8C835.3 465.8 835.9 466.4 830.3 466.3C830.3 466.3 825.4 443.7 824.3 442.2C824 441.8 822.1 437.6 821.4 436.4C821.3 436.3 820.1 438.9 820 438.8C817.8 434.8 814.3 428.1 814 427C813.7 425.6 817.7 407.9 821 408.5C823.5 408.9 825.6 410 826.5 410.6C826.8 410.8 827 410.9 827 410.9C827 410.9 827.1 411.4 827.3 412.3C827.5 413.1 827.8 414.2 828.1 415.5C828.1 415.7 828.2 415.8 828.2 416C830 423.4 833.3 436.7 833.8 438.9C834.6 441.9 835.3 465.8 835.3 465.8Z" fill="#FFAE73"/>
<path d="M826.5 406.9L833.7 433.1C833.7 433.1 831.6 436.9 827.3 438.4C824.3 439.4 819.4 439.1 819.4 439.1L812.5 422.2L826.5 406.9Z" fill="#2A4FA1"/>
<path d="M828.8 415.2L819.4 439C817.2 435 814.3 427.8 814 426.8C813.7 425.4 817.7 407.7 821 408.3C823.5 408.7 825.6 409.8 826.5 410.4C826.8 410.6 827.3 410.5 827.3 410.5C827.3 410.5 827.6 410.8 827.8 411.7C828.1 412.5 828.5 413.9 828.8 415.2Z" fill="#234277"/>
<path d="M820.499 370.6L812.099 374.9L810.398 369.1C810.398 369.1 811.499 367.1 811.999 363.8C812.199 362.4 812.299 360.8 812.199 359L819.099 362.5C819.099 362.5 818.898 363.1 818.798 364.1C818.698 365.1 818.598 366.5 818.898 367.8C819.098 368.8 819.599 369.8 820.499 370.6Z" fill="#FFAE73"/>
<path d="M806.298 412.5C806.298 412.5 802.898 433.6 803.298 467.4L808.099 468C808.099 468 811.898 454.9 814.298 441.9C815.698 434.2 814.798 411.7 814.798 411.7L806.298 412.5Z" fill="#FFAE73"/>
<path d="M801.7 409.9C801.7 412.9 798.1 438.7 798.1 438.7C798.1 438.7 801.7 440.1 806.2 440.6C812.6 441.3 816.7 439.5 816.7 439.5L824.7 409.2L801.7 409.9Z" fill="#2A4FA1"/>
<path d="M825.799 412.3C816.399 414.8 804.499 413.4 801.599 413C801.199 412.9 800.899 412.9 800.899 412.9C799.899 412.7 799.199 411.7 799.199 410.7C799.199 410.6 799.199 410.4 799.199 410.3L801.999 394.9L801.099 387.2L800.599 382.8L799.399 372.7C803.399 370.7 807.099 369.6 810.399 369.1C811.699 370.4 814.199 372.3 816.999 372C819.099 371.7 819.599 370.6 819.599 369.4C823.999 370.1 826.399 371.4 826.399 371.4L829.299 407.6C829.299 409.7 827.899 411.7 825.799 412.3Z" fill="#AEFF8C"/>
<path d="M810.3 369.1L809 371.6L807.8 374L801.9 386.9C800.9 385.7 794 383.2 794 383.2C794 383.2 797.1 375.3 799.3 372.6C799.9 371.8 801.1 371.2 802.5 370.7C803.6 370.3 804.9 370 806 369.7C808.3 369.3 810.3 369.1 810.3 369.1Z" fill="#AEFF8C"/>
<path d="M799.398 408.1L800.199 404C812.399 386.3 814.298 382.7 808.798 374.8C807.198 372.5 803.998 371 802.798 370.7C803.898 370.3 805.499 369.9 806.599 369.7C807.799 370.2 808.898 370.9 809.798 371.6C826.598 386.1 799.398 408.1 799.398 408.1Z" fill="#3850A1"/>
<path d="M807.701 390.8C808.001 390.8 809.301 390.1 809.301 390.1C809.301 390.1 810.501 385.6 814.701 384.9C814.701 384.9 816.701 384.9 816.301 386.3C815.901 387.7 815.801 387.1 815.301 389C814.801 390.9 813.401 392.4 811.901 392.5L810.401 392.9C810.401 392.8 806.901 390.8 807.701 390.8Z" fill="#FFAE73"/>
<path d="M809.299 390.1C809.299 390.1 801.299 390.8 800.099 391.4C800.099 391.4 800.799 389.6 801.899 387C800.899 386 797.399 384.4 795.099 383.7C793.399 388.1 792.699 392.5 793.699 396.7C793.799 397.1 794.199 397.5 794.699 397.5C797.299 397.6 805.799 397.6 811.999 392.4L809.299 390.1Z" fill="#FFAE73"/>
<path d="M818.798 367.7C814.898 367.6 811.898 363.8 811.898 363.8L818.699 364.1C818.599 365 818.498 366.4 818.798 367.7Z" fill="#F7914F"/>
<path d="M820.499 365.9C820.499 365.9 810.199 367.1 809.999 359.9C809.799 352.7 814.099 348 816.899 348C822.599 348.1 823.499 350.4 824.199 352.8C824.899 355.3 825.199 365.4 820.499 365.9Z" fill="#FFAE73"/>
<path d="M808.099 468C808.099 468 808.999 469.7 810.899 470.1C812.099 470.4 813.199 471 813.799 471.9C814.399 472.7 813.799 473.7 812.899 473.7H802.999C802.199 473.7 801.499 473 801.599 472.1C801.699 471.4 801.699 470.5 801.799 469.9C801.899 468.5 803.299 467.3 803.299 467.3L808.099 468Z" fill="#314379"/>
<path d="M826.3 371.3C826.3 371.3 829.7 374.3 831.9 381.5C831.9 381.5 832.6 388.6 826.3 389.3C819.9 390 826.3 371.3 826.3 371.3Z" fill="#AEFF8C"/>
<path d="M809.299 390.1C809.299 390.1 809.599 388.8 809.999 387.5C810.399 386.2 810.699 384.9 810.999 385.5C811.299 386.1 811.399 387.7 811.399 387.7L809.299 390.1Z" fill="#FFAE73"/>
<path d="M815.299 358.9C815.299 358.9 820.099 360.5 824.499 359.1C824.499 359.1 825.199 363.9 821.699 365.5C818.199 367.1 813.699 362.6 813.699 362.6L815.299 358.9Z" fill="white"/>
<path d="M815.099 359.3C814.999 359.2 812.099 356.9 811.299 355.8L811.699 355.7C812.499 356.8 815.299 358.9 815.399 358.9L815.099 359.3Z" fill="white"/>
<path d="M813.699 362.6L810.799 359.1L810.899 358.8L813.899 362.3L813.699 362.6Z" fill="white"/>
<path d="M811.899 364C811.899 364 805.199 359 805.199 353.1C805.199 345.8 809.699 343.8 815.999 343.4C822.299 343 826.799 348.4 825.099 351.1C823.399 353.8 821.299 353.2 817.399 352.7C813.399 352.3 813.599 355.9 811.899 355.7C810.199 355.5 809.699 354.9 809.599 356.1C809.499 357.3 811.399 357.6 810.999 358.8C810.299 361.1 811.899 364 811.899 364Z" fill="#3850A1"/>
<path d="M811.901 356.4C811.901 356.4 810.501 354.6 809.601 355.1C808.701 355.6 809.6 358.2 810.3 358.6C811 359 811.801 359.2 811.901 359.1C812.001 358.9 811.901 356.4 811.901 356.4Z" fill="#FFAE73"/>
<path d="M840.6 376.2C840.6 376.2 841.9 371.2 845 371.4C848.1 371.6 847.6 374.7 846.1 376.2C844.6 377.8 841.7 380 841.7 380L840.6 376.2Z" fill="#FFAE73"/>
<path d="M1052.7 475.1H1.70068C1.00068 475.1 0.400391 474.5 0.400391 473.8C0.400391 473.1 1.00068 472.5 1.70068 472.5H1052.7C1053.4 472.5 1054 473.1 1054 473.8C1054.1 474.5 1053.5 475.1 1052.7 475.1Z" fill="#F7F7F7"/>
<path d="M1049.9 281.1H1049.8C1018.2 284.8 1006.2 246.5 973.5 258.7C940.8 270.9 910.501 241.6 914.701 216.5C918.901 191.5 906.8 198 897.5 172.5C891.6 156.4 896.2 142.4 900.5 134.4C983.1 147.2 1028 201.3 1045.5 262.6C1046.9 267.3 1048 272.1 1049.1 276.9C1049.4 278.2 1049.7 279.5 1049.9 280.8C1049.9 280.9 1049.9 281 1049.9 281.1Z" fill="#AEFF8C"/>
</svg>
