<svg width="56" height="57" viewBox="0 0 56 57" fill="none" xmlns="http://www.w3.org/2000/svg">
<path d="M55.7984 28.5001C55.7984 29.2001 55.4983 30.0002 54.8983 30.6002C54.1983 31.3002 53.2983 31.8003 52.3983 32.2003C50.6983 32.9003 48.7984 33.1999 46.9984 33.2999C44.4984 33.4999 43.6983 33.5 41.1983 33.4C40.9983 33.4 40.8984 33.4002 40.7984 33.6002C35.2984 41.4002 31.8985 46.5002 24.5985 56.1002C24.0985 56.9002 24.2984 56.7999 23.2984 56.7999C22.3984 56.7999 21.5983 56.7999 20.6983 56.7999C20.3983 56.7999 20.1984 56.5999 20.2984 56.2999C20.2984 56.1999 20.3983 56.1001 20.3983 56.0001C22.3983 48.4001 24.4984 40.8003 26.4984 33.2003C26.4984 33.2003 26.5983 32.9 26.3983 32.9C26.3983 32.9 22.1984 32.7002 19.9984 32.6002C16.6984 32.5002 14.4983 32.3003 11.1983 32.2003C10.9983 32.2003 10.8983 32.2 10.6983 32.4C10.4983 32.6 10.3983 32.7 10.1983 32.9C6.29831 36.1 6.09836 36.1999 2.99836 38.7999C2.79836 38.9999 2.69827 39.0001 2.39827 39.0001C1.89827 39.0001 1.69831 39.0001 1.19831 39.0001C0.698314 39.0001 0.39846 38.7999 0.59846 38.2999C1.59846 35.8999 2.69831 33.6003 3.69831 31.2003C3.79831 31.0003 3.79827 30.9003 3.89827 30.7003C3.99827 30.6003 3.89831 30.4 3.69831 30.4C2.89831 30.2 2.09836 29.8999 1.49836 29.2999C1.29836 29.0999 1.19831 28.8002 1.19831 28.6002C1.19831 28.4002 1.29836 28.1 1.49836 27.9C2.09836 27.3 2.89831 26.9999 3.69831 26.7999C3.79831 26.7999 3.89827 26.6001 3.89827 26.5001C3.79827 26.3001 3.79831 26.2001 3.69831 26.0001C2.69831 23.6001 1.59846 21.3 0.59846 18.9C0.39846 18.4 0.598314 18.2003 1.19831 18.2003C1.59831 18.2003 1.89827 18.2003 2.39827 18.2003C2.59827 18.2003 2.79836 18.2 2.99836 18.4C6.09836 21 6.29831 21.0999 10.1983 24.2999C10.3983 24.4999 10.4983 24.5999 10.6983 24.7999C10.7983 24.9999 10.9983 25.0001 11.1983 25.0001C14.4983 24.9001 16.6984 24.7002 19.9984 24.6002C22.0984 24.5002 26.3983 24.2999 26.3983 24.2999C26.5983 24.2999 26.4984 24.0001 26.4984 24.0001C24.4984 16.4001 22.3983 8.80027 20.3983 1.20027C20.3983 1.10027 20.2984 0.999976 20.2984 0.899976C20.1984 0.599976 20.3983 0.399976 20.6983 0.399976C21.5983 0.399976 22.3984 0.399976 23.2984 0.399976C24.2984 0.399976 24.0985 0.300171 24.5985 1.10017C31.8985 10.7002 35.2984 15.8002 40.7984 23.6002C40.8984 23.8002 40.9983 23.7999 41.1983 23.7999C43.6983 23.6999 44.4984 23.7 46.9984 23.9C48.8984 24 50.6983 24.3001 52.3983 25.0001C53.2983 25.4001 54.1983 25.9002 54.8983 26.6002C55.4983 27.1002 55.7984 27.8001 55.7984 28.5001Z" fill="white"/>
</svg>
