<svg width="77" height="44" viewBox="0 0 77 44" fill="none" xmlns="http://www.w3.org/2000/svg">
<path d="M54.0005 6C54.0005 4.9 53.1005 4 52.0005 4H45.3008L48.4009 6H54.0005Z" fill="black"/>
<path d="M28.3994 4H18.1992L21.2993 6H31.499L28.3994 4Z" fill="black"/>
<path d="M32.7002 8H28L31.1001 10H32.7002C35.1002 10 37.1001 11.9999 37.1001 14.3999V28.2H39.1001V14.3999C39.1001 10.8999 36.2002 8 32.7002 8Z" fill="black"/>
<path d="M58.9995 2.30005C57.4995 0.800049 55.3998 0 53.2998 0H15.5996L18.6997 2H53.3999C56.6999 2 59.3999 4.7 59.3999 8H51.3999C47.8999 8 44.9995 10.7999 44.9995 14.3999V28.2H46.9995V14.3999C46.9995 11.9999 48.8999 10 51.3999 10H55.5996C56.1996 10 56.6998 10.0001 57.2998 10.1001C59.2998 10.3001 60.8999 11.2 61.3999 12.3V10V8C61.3999 5.9 60.5995 3.80005 58.9995 2.30005Z" fill="black"/>
<path d="M9.49902 35.8H6.09912V43.1001H4.09912V35.8H0.699219V34.2H9.49902V35.8Z" fill="black"/>
<path d="M20.498 38.7C20.498 42.1 17.7982 43.3 15.1982 43.3C12.5982 43.3 9.89844 42.1 9.89844 38.7C9.89844 35.3 12.5982 34.1001 15.1982 34.1001C17.7982 34.1001 20.498 35.3 20.498 38.7ZM18.3984 38.7C18.3984 37 17.3982 35.6001 15.1982 35.6001C12.9982 35.6001 11.998 36.9 11.998 38.7C11.998 40.4 12.9982 41.8 15.1982 41.8C17.3982 41.8 18.3984 40.4 18.3984 38.7Z" fill="black"/>
<path d="M30.2998 43.1001L25.0996 39.8999L22.5996 43.1001H20.0996L23.9995 38.5L20.4995 34.2L25.2998 37.1001L27.4995 34.2H29.9995L26.4995 38.5L30.2998 43.1001Z" fill="black"/>
<path d="M40.6987 34.2V43.1001H38.6987V39.3999H33.2988V43.1001H31.2988V34.2H33.2988V37.8999H38.6987V34.2H40.6987Z" fill="black"/>
<path d="M48.1997 34.2H45.6997L41.5996 43.1001H43.7998L46.9995 35.8L50.1997 43.1001H52.3999L48.1997 34.2Z" fill="black"/>
<path d="M66.1001 34.2L63 43.1001H60.6001L58.8003 37L57 43.1001H54.6001L51.5 34.2H53.7002L55.9004 40.8999L57.9004 34.2H59.8003L61.8003 40.8999L64 34.2H66.1001Z" fill="black"/>
<path d="M70.8984 39L66.8984 42.6001V34.2H68.8984V38.3999L73.3984 34.2H76.0981L72.2983 37.7L76.2983 43.1001H73.8984L70.8984 39Z" fill="black"/>
</svg>
