<svg width="2292" height="589" viewBox="0 0 2292 589" fill="none" xmlns="http://www.w3.org/2000/svg">
<path d="M825.203 506.033H788.003V586.833H765.336V506.033H728.136V488.566H825.203V506.033Z" fill="white"/>
<path d="M923.602 537.766C923.602 518.566 912.536 503.766 888.136 503.766C863.736 503.766 852.669 518.566 852.669 537.766C852.669 557.1 863.736 571.9 888.136 571.9C912.536 571.9 923.602 557.1 923.602 537.766ZM946.536 537.766C946.536 575.366 916.402 588.966 888.002 588.966C859.602 588.966 829.336 575.366 829.336 537.766C829.336 500.3 859.602 486.7 888.002 486.7C916.402 486.566 946.536 500.3 946.536 537.766Z" fill="white"/>
<path d="M1055.07 586.833L998.003 551.099L970.003 586.833H942.403L985.069 535.633L946.003 488.566L999.603 520.166L1024.14 488.566H1051.6L1012.54 535.633L1055.07 586.833Z" fill="white"/>
<path d="M1170.14 488.566V586.833H1147.47V546.433H1087.47V586.833H1064.8V488.566H1087.47V528.966H1147.47V488.566H1170.14Z" fill="white"/>
<path d="M1253.2 488.566H1225.34L1179.87 586.833H1203.87L1239.34 505.766L1274.54 586.833H1298.54L1253.2 488.566Z" fill="white"/>
<path d="M1450.14 488.566L1415.34 586.833H1388.8L1368.67 519.766L1348.54 586.833H1322L1287.2 488.566H1311.2L1335.6 563.1L1357.87 488.566H1379.2L1401.47 563.1L1425.74 488.566H1450.14Z" fill="white"/>
<path d="M1503.74 541.366L1460 581.233V488.566H1482.67V535.099L1532.54 488.566H1561.87L1519.74 526.833L1563.87 586.833H1537.07L1503.74 541.366Z" fill="white"/>
</svg>
